<?xml version="1.0" standalone="no"?>
<!DOCTYPE svg PUBLIC "-//W3C//DTD SVG 1.1//EN" "http://www.w3.org/Graphics/SVG/1.1/DTD/svg11.dtd">
<svg xmlns="http://www.w3.org/2000/svg">
<defs >
<font id="KumbhSans" horiz-adv-x="1158" ><font-face
    font-family="Kumbh Sans ExtraLight"
    units-per-em="2048"
    panose-1="0 0 0 0 0 0 0 0 0 0"
    ascent="2020"
    descent="-520"
    alphabetic="0" />
<glyph unicode=" " horiz-adv-x="520" />
<glyph unicode="!" horiz-adv-x="457" d="M254 394H202L191 1500H265L254 394ZM228 -20Q200 -20 181 0T161 48Q161 75 180 94T228 113Q257 113 276 94T296 47Q296 19 277 0T228 -20Z" />
<glyph unicode="&quot;" horiz-adv-x="750" d="M248 1085H189L178 1520H259L248 1085ZM561 1085H502L491 1520H572L561 1085Z" />
<glyph unicode="#" horiz-adv-x="1327" d="M1221 940H967L892 518H1147L1136 451H881L801 0H726L805 451H413L333 0H257L337 451H82L93 518H349L424 940H167L178 1007H436L522 1500H598L511 1007H904L991 1500H1066L979 1007H1232L1221 940ZM424 518H817L891 940H499L424
518Z" />
<glyph unicode="$" horiz-adv-x="1051" d="M105 207L145 273Q200 230 258 199T379 151T506 135Q608 135 686 172T808 275T852 428Q852 519 805 577T684 675T527 749Q463 776 400 806T287 876T207 973T177 1109Q177 1243 265 1331T500 1436V1620H565V1440Q639 1439
715 1420T857 1363L822 1294Q761 1330 695 1348T564 1367Q431 1367 346 1295T261 1110Q261 1027 305 974T421 883T574 811Q640 783 704 752T821 677T905 574T936 429Q936 328 889 249T759 122T565 63V-120H500V60Q393 62 291 100T105 207Z" />
<glyph unicode="%" horiz-adv-x="1787" d="M472 873Q325 873 235 962T145 1196Q145 1342 235 1431T472 1520Q619 1520 708 1431T798 1196Q798 1051 709 962T472 873ZM452 0H370L1337 1500H1419L452 0ZM472 935Q586 935 656 1007T727 1196Q727 1314 657 1386T472
1458Q356 1458 286 1387T216 1196Q216 1078 286 1007T472 935ZM1315 -20Q1169 -20 1079 69T989 303Q989 449 1079 538T1315 627Q1463 627 1552 538T1642 303Q1642 158 1552 69T1315 -20ZM1315 42Q1430 42 1500 114T1571 303Q1571 421 1501 493T1315 565Q1200 565
1130 494T1060 303Q1060 185 1130 114T1315 42Z" />
<glyph unicode="&amp;" horiz-adv-x="1514" d="M1419 44L1371 -25Q1297 27 1227 79T1090 185Q989 79 872 25T621 -30Q483 -30 376 25T207 176T145 397Q145 508 191 585T312 716T471 816Q394 929 354 1030T314 1217Q314 1307 356 1377T471 1489T637 1530Q729 1530
798 1490T907 1380T947 1216Q947 1105 894 1030T758 900T584 796Q673 678 799 551T1081 295Q1152 381 1212 497T1321 755L1396 729Q1345 579 1282 458T1144 245Q1209 194 1277 144T1419 44ZM542 855Q625 899 699 946T819 1056T866 1211Q866 1317 802 1384T637 1452Q535
1452 468 1384T401 1211Q401 1136 437 1046T542 855ZM515 756Q440 714 376 666T272 554T232 398Q232 297 282 218T421 94T622 48Q734 48 835 95T1027 235Q865 368 736 500T515 756Z" />
<glyph unicode="&apos;" horiz-adv-x="430" d="M244 1085H186L175 1520H255L244 1085Z" />
<glyph unicode="(" horiz-adv-x="630" d="M482 -289H393Q248 -93 172 141T95 625Q95 875 171 1109T393 1540H482Q331 1343 251 1109T171 626Q171 379 251 144T482 -289Z" />
<glyph unicode=")" horiz-adv-x="631" d="M238 -289H148Q300 -91 380 144T460 626Q460 874 380 1108T148 1540H238Q383 1343 459 1109T536 625Q536 375 460 141T238 -289Z" />
<glyph unicode="*" horiz-adv-x="1028" d="M802 774L726 717L515 1063L302 717L225 774L479 1089L95 1190L125 1283L493 1132L467 1540H561L536 1132L905 1283L933 1190L547 1091L802 774Z" />
<glyph unicode="+" horiz-adv-x="1155" d="M980 467H616V96H540V467H175V537H540V908H616V537H980V467Z" />
<glyph unicode="," horiz-adv-x="459" d="M199 -240H135L230 180H314L199 -240Z" />
<glyph unicode="-" horiz-adv-x="1150" d="M975 470H175V539H975V470Z" />
<glyph unicode="." horiz-adv-x="444" d="M222 -20Q193 -20 174 -1T155 46Q155 75 174 94T222 113Q250 113 269 94T289 46Q289 18 270 -1T222 -20Z" />
<glyph unicode="/" horiz-adv-x="789" d="M117 -20H35L672 1520H754L117 -20Z" />
<glyph unicode="0" d="M579 -30Q427 -30 320 61T155 327T98 751Q98 999 155 1173T320 1438T579 1530Q731 1530 838 1439T1003 1173T1060 751Q1060 502 1004 328T839 62T579 -30ZM579 50Q763 50 866 236T970 751Q970 1080 867 1265T579 1450Q396 1450 292 1265T188
751Q188 422 292 236T579 50Z" />
<glyph unicode="1" horiz-adv-x="707" d="M508 0H420V1412L124 1304L95 1378L432 1500H508V0Z" />
<glyph unicode="2" horiz-adv-x="1246" d="M1081 0H217V65Q407 224 544 362T770 624T902 860T945 1077Q945 1187 902 1271T783 1402T608 1450Q494 1450 395 1386T233 1209L175 1259Q246 1387 362 1458T615 1530Q738 1530 832 1474T981 1319T1035 1092Q1035 980
990 859T857 609T639 348T339 80H1081V0Z" />
<glyph unicode="3" horiz-adv-x="1185" d="M145 147L189 211Q271 133 367 92T566 50Q676 50 761 95T894 221T942 405Q942 569 819 659T478 750H432V820H478Q596 820 689 863T835 981T889 1153Q889 1239 847 1306T730 1411T562 1450Q472 1450 388 1414T235 1309L185
1371Q263 1448 361 1489T567 1530Q685 1530 777 1483T922 1354T975 1168Q975 1034 890 931T672 789Q840 760 936 658T1033 398Q1033 274 973 177T808 25T566 -30Q447 -30 340 15T145 147Z" />
<glyph unicode="4" horiz-adv-x="1239" d="M961 0H873V393H95V468L873 1500H961V472H1144V393H961V0ZM196 472H873V1369L196 472Z" />
<glyph unicode="5" horiz-adv-x="1101" d="M98 167L153 232Q207 145 299 98T506 50Q628 50 719 101T862 243T913 456Q913 577 862 668T720 810T507 861Q434 861 370 841T253 783L203 819L269 1500H949V1420H350L296 886Q396 933 521 933Q664 933 772 873T941 706T1002
454Q1002 310 940 201T768 31T511 -30Q379 -30 272 21T98 167Z" />
<glyph unicode="6" horiz-adv-x="1117" d="M557 -30Q418 -30 315 35T155 219T98 499Q98 639 141 781T262 1056T449 1303T690 1500L733 1439Q592 1347 479 1219T290 941T185 638Q240 752 343 817T578 882Q706 882 805 824T962 665T1019 431Q1019 297 960 193T797
30T557 -30ZM565 50Q669 50 751 99T881 236T929 434Q929 543 883 627T755 760T568 808Q462 808 378 759T245 624T196 430Q196 323 244 237T377 100T565 50Z" />
<glyph unicode="7" horiz-adv-x="1058" d="M372 0H278L863 1420H95V1500H963V1431L372 0Z" />
<glyph unicode="8" horiz-adv-x="1178" d="M588 -30Q449 -30 345 22T183 169T125 391Q125 543 208 649T433 793Q315 831 247 924T178 1150Q178 1265 229 1350T372 1483T588 1530Q713 1530 805 1483T948 1351T999 1150Q999 1017 931 924T744 793Q886 756 969 650T1053
392Q1053 266 995 171T833 23T588 -30ZM588 831Q732 831 821 916T911 1140Q911 1278 822 1364T588 1450Q444 1450 355 1364T266 1140Q266 1002 355 917T588 831ZM588 50Q701 50 785 94T916 217T964 401Q964 506 917 585T785 709T588 753Q477 753 393 709T261 585T214
401Q214 296 261 217T392 94T588 50Z" />
<glyph unicode="9" horiz-adv-x="1117" d="M426 0L384 60Q525 153 638 281T826 558T932 861Q877 747 774 683T538 618Q410 618 311 676T155 835T98 1068Q98 1203 157 1307T320 1470T559 1530Q699 1530 802 1465T962 1281T1019 1000Q1019 860 976 719T855 444T668
197T426 0ZM548 692Q655 692 739 741T871 877T920 1070Q920 1178 872 1264T740 1400T552 1450Q448 1450 366 1401T236 1264T188 1066Q188 957 234 873T362 740T548 692Z" />
<glyph unicode=":" horiz-adv-x="443" d="M222 847Q194 847 175 866T155 913Q155 941 174 960T222 980Q250 980 269 961T288 913Q288 885 269 866T222 847ZM222 -20Q194 -20 175 -1T155 47Q155 74 174 93T222 113Q250 113 269 94T288 47Q288 19 269 0T222 -20Z" />
<glyph unicode=";" horiz-adv-x="459" d="M257 847Q229 847 210 866T191 913Q191 941 210 960T257 980Q285 980 304 961T324 913Q324 885 305 866T257 847ZM200 -240H135L231 180H314L200 -240Z" />
<glyph unicode="&lt;" horiz-adv-x="1217" d="M1042 0L95 478V550L1042 1020V940L173 514L1042 80V0Z" />
<glyph unicode="=" horiz-adv-x="1305" d="M1130 687H175V759H1130V687ZM1130 200H175V272H1130V200Z" />
<glyph unicode="&gt;" horiz-adv-x="1217" d="M175 0V80L1044 514L175 940V1020L1122 550V478L175 0Z" />
<glyph unicode="?" horiz-adv-x="913" d="M171 1328L125 1397Q296 1530 477 1530Q579 1530 656 1489T775 1374T818 1200Q818 1133 799 1084T747 993T675 909Q628 856 581 792T502 632T470 394H392Q392 551 425 653T507 823T605 944Q656 1002 694 1058T732 1200Q732
1313 661 1381T473 1450Q395 1450 316 1418T171 1328ZM431 -20Q402 -20 384 -1T365 46Q365 75 383 94T431 113Q460 113 478 94T497 46Q497 18 479 -1T431 -20Z" />
<glyph unicode="@" horiz-adv-x="1945" d="M915 84Q790 84 697 137T551 288T499 514Q499 656 561 769T730 947T974 1012Q1103 1012 1198 951T1339 778L1354 946H1434Q1426 888 1419 819T1404 678T1391 543T1382 429T1379 354Q1379 264 1418 212T1522 159Q1592
159 1647 217T1734 375T1767 604Q1767 820 1674 985T1415 1243T1029 1336Q848 1336 694 1273T424 1095T244 826T180 491Q180 280 268 121T514 -128T881 -217Q1128 -217 1347 -80L1386 -151Q1136 -292 867 -292Q639 -292 465 -194T193 81T95 491Q95 688 165 855T362
1148T659 1342T1029 1411Q1211 1411 1361 1353T1621 1187T1790 934T1850 612Q1850 459 1807 340T1687 152T1514 84Q1425 84 1370 144T1307 310Q1246 201 1145 143T915 84ZM921 159Q1021 159 1103 202T1241 321T1314 493L1323 582Q1323 687 1280 767T1160 891T981
936Q868 936 778 881T636 731T583 516Q583 356 676 258T921 159Z" />
<glyph unicode="A" horiz-adv-x="1487" d="M159 0H65L693 1500H795L1422 0H1329L1136 460H350L159 0ZM383 540H1104L743 1406L383 540Z" />
<glyph unicode="B" horiz-adv-x="1306" d="M175 0V1500H691Q889 1500 1005 1402T1121 1136Q1121 1007 1052 912T870 784Q1015 756 1101 656T1187 407Q1187 286 1127 195T958 52T708 0H175ZM263 815H696Q848 815 940 900T1033 1122Q1033 1260 938 1340T681 1420H263V815ZM263
80H695Q813 80 904 123T1046 244T1097 421Q1097 518 1048 590T910 702T703 742H263V80Z" />
<glyph unicode="C" horiz-adv-x="1553" d="M1428 194Q1325 89 1183 30T872 -30Q705 -30 564 28T318 191T156 438T98 750Q98 919 155 1061T317 1309T563 1472T872 1530Q1040 1530 1182 1471T1427 1307L1366 1244Q1274 1341 1148 1395T871 1450Q723 1450 599 1398T382
1252T239 1029T188 750Q188 598 239 471T382 249T598 102T871 50Q1021 50 1147 105T1366 256L1428 194Z" />
<glyph unicode="D" horiz-adv-x="1551" d="M175 0V1500H568Q846 1500 1044 1411T1347 1155T1452 750Q1452 514 1347 346T1044 89T568 0H175ZM263 80H574Q823 80 999 159T1268 389T1362 750Q1362 961 1269 1111T999 1340T574 1420H263V80Z" />
<glyph unicode="E" horiz-adv-x="1236" d="M175 0V1500H1061V1420H263V807H1020V727H263V80H1071V0H175Z" />
<glyph unicode="F" horiz-adv-x="1221" d="M175 0V1500H1056V1420H263V807H1015V727H263V0H175Z" />
<glyph unicode="G" horiz-adv-x="1688" d="M1352 1263Q1258 1354 1134 1402T870 1450Q722 1450 597 1398T381 1252T239 1029T188 748Q188 597 237 470T374 248T583 102T846 50Q983 50 1101 98T1308 235T1449 442T1505 705H882V779H1587L1589 749Q1589 578 1535
436T1383 189T1149 27T852 -30Q689 -30 551 28T312 190T154 436T98 746Q98 915 155 1058T317 1307T562 1471T870 1530Q1027 1530 1166 1477T1412 1321L1352 1263Z" />
<glyph unicode="H" horiz-adv-x="1488" d="M263 0H175V1500H263V781H1225V1500H1313V0H1225V701H263V0Z" />
<glyph unicode="I" horiz-adv-x="438" d="M263 1500H175V0H263V1500Z" />
<glyph unicode="J" horiz-adv-x="460" d="M-172 -360L-175 -280Q10 -280 103 -189T197 83V1500H285V94Q285 -60 236 -161T85 -311T-172 -360Z" />
<glyph unicode="K" horiz-adv-x="1322" d="M263 0H175V1500H263V491Q287 523 308 551T352 608L1061 1500H1168L625 816L1287 0H1170L567 744L263 362V0Z" />
<glyph unicode="L" horiz-adv-x="1150" d="M1055 0H175V1500H263V80H1055V0Z" />
<glyph unicode="M" horiz-adv-x="1800" d="M1625 0H1537V1384L942 252H855L263 1380V0H175V1500H293L899 340L1503 1500H1625V0Z" />
<glyph unicode="N" horiz-adv-x="1611" d="M1436 0H1336L263 1371V0H175V1500H275L1348 129V1500H1436V0Z" />
<glyph unicode="O" horiz-adv-x="1743" d="M872 -30Q705 -30 564 28T318 191T156 438T98 750Q98 919 155 1061T317 1309T563 1472T872 1530Q1040 1530 1180 1472T1425 1309T1587 1062T1645 750Q1645 581 1588 439T1426 191T1181 28T872 -30ZM872 50Q1019 50 1144
102T1361 249T1504 471T1555 750Q1555 901 1504 1029T1361 1251T1144 1398T872 1450Q724 1450 599 1398T382 1252T239 1029T188 750Q188 599 239 471T382 249T599 102T872 50Z" />
<glyph unicode="P" horiz-adv-x="1303" d="M175 0V1500H600Q779 1500 905 1447T1098 1293T1165 1052Q1165 912 1098 811T905 657T600 603H263V0H175ZM263 683H595Q823 683 949 781T1075 1052Q1075 1224 949 1322T595 1420H263V683Z" />
<glyph unicode="Q" horiz-adv-x="1743" d="M1599 -210Q1451 -188 1339 -165T1128 -109T918 -29H872Q705 -29 564 29T318 191T156 438T98 750Q98 919 155 1061T317 1309T563 1472T872 1530Q1040 1530 1180 1472T1425 1309T1587 1062T1645 750Q1645 555 1568 396T1355
130T1040 -11Q1155 -47 1248 -69T1430 -104T1616 -121L1599 -210ZM872 50Q1019 50 1144 102T1361 249T1504 471T1555 750Q1555 901 1504 1029T1361 1251T1144 1398T872 1450Q724 1450 599 1398T382 1252T239 1029T188 750Q188 599 239 471T382 249T599 102T872
50Z" />
<glyph unicode="R" horiz-adv-x="1268" d="M1173 0H1074L686 656H263V0H175V1500H661Q808 1500 915 1448T1082 1302T1141 1078Q1141 912 1045 804T781 667L1173 0ZM263 736H657Q838 736 944 828T1051 1078Q1051 1235 945 1327T657 1420H263V736Z" />
<glyph unicode="S" horiz-adv-x="1169" d="M105 136L150 204Q212 153 277 119T413 67T556 49Q673 49 763 92T903 211T954 385Q954 490 900 556T761 668T582 752Q509 783 438 817T310 897T220 1005T186 1156Q186 1267 241 1351T395 1483T624 1530Q711 1530 795
1508T955 1444L915 1370Q846 1409 771 1429T622 1450Q520 1450 443 1414T321 1312T276 1161Q276 1067 326 1006T457 903T628 822Q704 789 778 753T912 668T1008 552T1044 387Q1044 264 983 170T813 23T561 -30Q437 -30 321 12T105 136Z" />
<glyph unicode="T" horiz-adv-x="1215" d="M652 0H564V1420H55V1500H1160V1420H652V0Z" />
<glyph unicode="U" horiz-adv-x="1575" d="M1400 1500V668Q1400 451 1327 294T1116 54T787 -30Q597 -30 460 54T249 294T175 668V1500H263V666Q263 476 327 338T508 125T787 50Q950 50 1067 124T1248 337T1312 666V1500H1400Z" />
<glyph unicode="V" horiz-adv-x="1528" d="M816 0H712L85 1500H179L764 94L1349 1500H1443L816 0Z" />
<glyph unicode="W" horiz-adv-x="2107" d="M1546 0H1481L1055 1326L628 0H563L75 1500H167L595 173L1022 1500H1087L1514 176L1939 1500H2032L1546 0Z" />
<glyph unicode="X" horiz-adv-x="1448" d="M1373 0H1263L723 712L182 0H75L668 779L120 1500H230L728 844L1224 1500H1331L781 778L1373 0Z" />
<glyph unicode="Y" horiz-adv-x="1362" d="M724 0H636V641L45 1500H152L681 720L1211 1500H1317L724 640V0Z" />
<glyph unicode="Z" horiz-adv-x="1302" d="M1203 0H98V73L1078 1420H138V1500H1185V1417L214 80H1203V0Z" />
<glyph unicode="[" horiz-adv-x="605" d="M510 -289H175V1540H510V1471H251V-219H510V-289Z" />
<glyph unicode="\" horiz-adv-x="789" d="M754 -20H672L35 1520H117L754 -20Z" />
<glyph unicode="]" horiz-adv-x="605" d="M430 -289H95V-220H354V1471H95V1540H430V-289Z" />
<glyph unicode="^" horiz-adv-x="1038" d="M943 700H868L519 1416L170 700H95L490 1500H548L943 700Z" />
<glyph unicode="_" horiz-adv-x="1380" d="M1205 0H175V70H1205V0Z" />
<glyph unicode="`" horiz-adv-x="474" d="M359 1169H296L105 1500H192L359 1169Z" />
<glyph unicode="a" horiz-adv-x="1087" d="M925 0H857L848 201Q802 100 707 40T487 -20Q384 -20 302 21T172 132T125 292Q125 387 177 459T320 573T529 615Q615 615 696 592T843 525V619Q843 721 804 793T693 905T525 945Q443 945 365 916T221 829L186 901Q263
959 354 989T537 1020Q656 1020 743 971T877 830T925 615V0ZM500 55Q595 55 672 98T796 218T843 391V441Q775 492 699 518T538 544Q394 544 302 475T210 298Q210 229 248 174T351 87T500 55Z" />
<glyph unicode="b" horiz-adv-x="1300" d="M250 0H175V1500H257V756Q318 875 434 947T696 1020Q841 1020 956 952T1138 766T1205 500Q1205 353 1138 235T956 49T696 -20Q548 -20 431 53T254 248L250 0ZM689 55Q812 55 909 113T1064 272T1121 500Q1121 627 1064
727T910 887T689 946Q571 946 476 892T323 744T257 531V469Q265 350 323 257T476 109T689 55Z" />
<glyph unicode="c" horiz-adv-x="1083" d="M981 134Q912 61 817 21T610 -20Q464 -20 348 48T163 234T95 500Q95 648 163 765T347 951T610 1020Q720 1020 815 980T981 866L930 813Q870 875 788 910T612 945Q489 945 391 887T236 728T179 500Q179 373 235 273T390
114T612 55Q706 55 788 90T930 187L981 134Z" />
<glyph unicode="d" horiz-adv-x="1301" d="M1126 0H1050L1047 238Q987 117 871 49T610 -20Q462 -20 346 48T162 235T95 500Q95 648 162 765T345 951T610 1020Q753 1020 868 953T1044 765V1500H1126V0ZM612 55Q731 55 829 109T985 258T1044 473V528Q1044 646 987
741T831 891T613 946Q489 946 391 887T236 728T179 500Q179 374 236 273T391 114T612 55Z" />
<glyph unicode="e" horiz-adv-x="1178" d="M1034 127Q852 -20 627 -20Q474 -20 354 48T164 236T95 509Q95 657 159 772T337 954T594 1020Q738 1020 848 954T1021 769T1083 497V468H182Q188 347 248 254T409 108T633 55Q829 55 993 188L1034 127ZM180 540H1006Q1000
660 947 751T803 893T597 945Q481 945 389 893T242 751T180 540Z" />
<glyph unicode="f" horiz-adv-x="763" d="M332 0H250V926H75V1000H250V1254Q250 1337 282 1399T373 1495T509 1530Q553 1530 599 1518T688 1482L657 1415Q622 1435 588 1445T519 1456Q435 1456 384 1397T332 1239V1000H648V926H332V0Z" />
<glyph unicode="g" horiz-adv-x="1258" d="M588 13Q448 13 337 79T160 260T95 517Q95 660 160 773T337 953T590 1020Q732 1020 844 950T1016 763L1018 1000H1093V24Q1093 -145 1032 -267T855 -455T577 -520Q344 -520 184 -360L227 -297Q368 -445 580 -445Q714
-445 810 -389T959 -227T1011 23V265Q953 151 841 82T588 13ZM594 87Q708 87 800 138T948 280T1011 484V550Q1005 664 949 753T801 894T595 946Q477 946 383 890T233 737T178 517Q178 395 233 297T382 143T594 87Z" />
<glyph unicode="h" horiz-adv-x="1217" d="M175 0V1500H257V791Q360 1020 638 1020Q838 1020 950 900T1062 566V0H980V553Q980 738 886 842T622 946Q453 946 355 841T257 553V0H175Z" />
<glyph unicode="i" horiz-adv-x="461" d="M230 1385Q202 1385 183 1405T164 1453Q164 1480 183 1499T230 1519Q258 1519 277 1500T297 1452Q297 1424 278 1405T230 1385ZM271 0H189V1000H271V0Z" />
<glyph unicode="j" horiz-adv-x="480" d="M251 1385Q223 1385 204 1404T184 1451Q184 1479 203 1499T251 1519Q279 1519 298 1499T317 1451Q317 1423 298 1404T251 1385ZM-94 -511L-92 -443Q-77 -446 -63 -447T-35 -449Q73 -449 141 -370T209 -158V1000H292V-160Q292
-329 211 -424T-8 -520Q-28 -520 -49 -518T-94 -511Z" />
<glyph unicode="k" horiz-adv-x="1096" d="M257 0H175V1500H257V359L322 434L861 1000H962L559 571L1031 0H926L503 513L257 251V0Z" />
<glyph unicode="l" horiz-adv-x="435" d="M260 0H175V1540H260V0Z" />
<glyph unicode="m" horiz-adv-x="1890" d="M1729 0H1647V553Q1647 738 1562 842T1323 946Q1169 946 1081 841T993 553V0H911V553Q911 738 826 842T588 946Q434 946 346 841T257 553V0H175V1000H245L249 784Q295 900 385 960T604 1020Q744 1020 837 949T968 745Q1010
880 1104 950T1338 1020Q1522 1020 1625 900T1729 566V0Z" />
<glyph unicode="n" horiz-adv-x="1217" d="M1062 0H980V561Q980 740 885 842T624 945Q456 945 357 840T257 555V0H175V1000H250L252 786Q302 901 399 960T635 1020Q835 1020 948 900T1062 566V0Z" />
<glyph unicode="o" horiz-adv-x="1218" d="M610 -20Q464 -20 348 48T163 234T95 500Q95 648 163 765T347 951T610 1020Q757 1020 873 952T1056 766T1123 500Q1123 352 1056 235T873 49T610 -20ZM610 55Q732 55 829 113T982 272T1039 500Q1039 627 983 727T829
886T610 945Q488 945 390 887T236 728T179 500Q179 373 235 273T390 114T610 55Z" />
<glyph unicode="p" horiz-adv-x="1300" d="M257 -500H175V1000H250L253 761Q314 882 430 951T691 1020Q839 1020 955 952T1138 766T1205 500Q1205 353 1138 235T955 49T690 -20Q548 -20 433 47T257 234V-500ZM689 55Q813 55 910 113T1064 272T1121 500Q1121 628
1065 728T911 887T690 946Q572 946 475 892T319 745T257 533V467Q260 348 318 255T473 109T689 55Z" />
<glyph unicode="q" horiz-adv-x="1301" d="M1126 -500H1043V233Q983 114 868 47T611 -20Q463 -20 346 48T162 235T95 500Q95 648 162 765T345 951T610 1020Q755 1020 871 952T1047 762L1050 1000H1126V-500ZM612 55Q731 55 827 108T982 255T1043 466V533Q1041
652 983 745T828 891T613 945Q489 945 391 887T237 728T180 500Q180 373 236 273T390 114T612 55Z" />
<glyph unicode="r" horiz-adv-x="771" d="M257 0H175V1000H250L252 756Q299 885 402 952T645 1020Q668 1020 690 1018T736 1012L726 937Q681 946 639 946Q527 946 441 892T306 742T257 523V0Z" />
<glyph unicode="s" horiz-adv-x="850" d="M105 88L135 161Q173 128 217 104T309 68T407 55Q519 55 590 114T661 267Q661 334 626 376T536 446T418 499Q353 527 291 558T189 640T149 771Q149 847 186 903T290 989T447 1020Q571 1020 689 962L661 889Q633 906 597
918T523 938T448 945Q353 945 293 898T233 772Q233 719 262 682T343 618T462 562Q530 533 595 499T702 410T745 267Q745 182 703 118T585 17T412 -20Q244 -20 105 88Z" />
<glyph unicode="t" horiz-adv-x="769" d="M684 22Q599 -20 515 -20Q439 -20 382 14T292 110T260 256V926H85V1000H263V1250H342V1000H655V926H342V271Q342 173 393 114T530 54Q595 54 664 92L684 22Z" />
<glyph unicode="u" horiz-adv-x="1203" d="M1028 0H954L952 213Q903 100 807 40T575 -20Q378 -20 267 100T155 435V1000H237V439Q237 260 330 158T586 55Q751 55 848 161T946 445V1000H1028V0Z" />
<glyph unicode="v" horiz-adv-x="1127" d="M1032 1000L603 0H523L95 1000H184L564 95L944 1000H1032Z" />
<glyph unicode="w" horiz-adv-x="1562" d="M1155 0H1065L780 876L496 0H405L75 1000H162L450 113L741 1000H820L1111 113L1400 1000H1487L1155 0Z" />
<glyph unicode="x" horiz-adv-x="1040" d="M139 0H35L468 527L81 1000H186L521 591L854 1000H958L573 528L1005 0H899L520 464L139 0Z" />
<glyph unicode="y" horiz-adv-x="1114" d="M418 -500H329L540 11L75 1000H165L581 108L950 1000H1039L418 -500Z" />
<glyph unicode="z" horiz-adv-x="1021" d="M926 0H95V56L789 925H126V1000H908V950L210 75H926V0Z" />
<glyph unicode="{" horiz-adv-x="590" d="M495 -289Q378 -289 319 -236T259 -76V385Q259 471 212 533T95 601V650Q164 655 211 717T259 866V1327Q259 1434 318 1487T495 1540V1470Q412 1470 374 1432T335 1310V864Q335 783 296 719T189 625Q256 595 295 531T335
386V-58Q335 -142 373 -180T495 -219V-289Z" />
<glyph unicode="|" horiz-adv-x="426" d="M251 -250H175V1540H251V-250Z" />
<glyph unicode="}" horiz-adv-x="590" d="M95 -289V-219Q178 -219 216 -180T255 -58V386Q255 467 295 531T401 625Q335 655 295 719T255 864V1310Q255 1393 217 1431T95 1470V1540Q213 1540 272 1487T331 1327V866Q331 780 378 718T495 650V601Q426 596 379 534T331
385V-76Q331 -183 272 -236T95 -289Z" />
<glyph unicode="~" horiz-adv-x="1392" d="M1217 643Q1146 567 1080 531T944 495Q880 495 821 520T702 576Q642 608 582 634T455 660Q319 660 175 516V586Q322 730 458 730Q517 730 575 706T704 646Q763 616 822 590T946 564Q1081 564 1217 713V643Z" />
<glyph unicode="&#xa0;" horiz-adv-x="520" />
<glyph unicode="&#xa1;" horiz-adv-x="443" d="M221 887Q192 887 173 906T154 954Q154 981 173 1000T221 1020Q249 1020 269 1001T289 954Q289 926 269 907T221 887ZM258 -500H185L196 606H246L258 -500Z" />
<glyph unicode="&#xa2;" horiz-adv-x="1083" d="M981 274Q918 208 832 168T645 121V-60H580V121Q441 125 332 194T159 380T95 640Q95 783 158 899T331 1085T580 1159V1340H644V1158Q745 1153 831 1113T981 1006L930 953Q871 1015 789 1050T613 1085Q489 1085 391
1027T235 868T178 640Q178 514 235 413T390 253T613 194Q707 194 789 230T930 327L981 274Z" />
<glyph unicode="&#xa3;" horiz-adv-x="1191" d="M862 717H460Q476 670 487 623T498 521Q498 404 444 295T278 74H1039V0H163V58Q288 168 355 286T422 520Q422 571 409 619T377 717H145V782H351Q308 873 284 952T259 1111Q259 1230 311 1322T455 1467T662 1520Q772
1520 870 1471T1042 1330L987 1284Q924 1362 843 1404T673 1446Q576 1446 502 1399T385 1271T343 1092Q343 1016 369 942T436 782H862V717Z" />
<glyph unicode="&#xa4;" horiz-adv-x="1297" d="M1151 322L1109 279L945 442Q887 392 811 364T648 335Q561 335 485 363T350 442L188 279L145 322L308 485Q258 543 231 619T203 784Q203 871 230 946T308 1080L145 1243L188 1286L350 1123Q409 1174 485 1202T649
1230Q737 1230 812 1202T946 1123L1109 1286L1152 1243L988 1080Q1039 1022 1066 947T1094 784Q1094 696 1067 620T988 485L1151 322ZM649 399Q758 399 843 449T976 585T1025 784Q1025 894 976 980T842 1116T648 1166Q541 1166 456 1117T321 981T272 784Q272 673
321 586T455 449T649 399Z" />
<glyph unicode="&#xa5;" horiz-adv-x="1182" d="M634 0H548V352H155V404H548V605H155V656H539L55 1500H153L591 717L1029 1500H1127L643 656H1027V604H634V404H1027V352H634V0Z" />
<glyph unicode="&#xa6;" horiz-adv-x="426" d="M251 820H175V1540H251V820ZM251 -250H175V470H251V-250Z" />
<glyph unicode="&#xa7;" horiz-adv-x="1013" d="M223 -33L253 33Q299 9 359 -5T476 -20Q585 -20 651 33T718 173Q718 237 683 279T591 350T470 407Q399 437 332 474T220 568T175 718Q175 830 245 906T437 1007Q378 1034 327 1067T245 1148T213 1268Q213 1348 253
1406T365 1497T536 1530Q666 1530 790 1473L760 1407Q714 1432 654 1446T537 1461Q428 1461 362 1407T295 1266Q295 1207 326 1167T412 1097T538 1035Q612 1004 680 967T793 872T838 722Q838 611 768 535T576 434Q635 407 686 374T768 292T800 172Q800 93 760 34T648
-57T477 -90Q347 -90 223 -33ZM516 460Q628 474 697 543T766 714Q766 785 733 832T639 914T497 980Q385 967 316 899T246 729Q246 659 280 611T375 527T516 460Z" />
<glyph unicode="&#xa8;" horiz-adv-x="880" d="M654 1285Q626 1285 609 1302T591 1348Q591 1377 608 1394T654 1411Q683 1411 700 1394T717 1349Q717 1320 700 1303T654 1285ZM227 1285Q198 1285 181 1302T163 1348Q163 1377 180 1394T226 1411Q255 1411 272 1394T290
1349Q290 1320 273 1303T227 1285Z" />
<glyph unicode="&#xa9;" horiz-adv-x="1389" d="M695 -104Q522 -104 386 -27T173 186T95 495Q95 668 172 803T386 1015T695 1093Q868 1093 1003 1016T1216 803T1294 495Q1294 322 1217 187T1004 -26T695 -104ZM695 -41Q849 -41 969 28T1158 219T1228 493Q1228
648 1158 769T968 961T695 1031Q542 1031 422 961T231 770T161 493Q161 339 230 218T420 28T695 -41ZM954 264Q850 173 712 173Q620 173 548 214T434 329T392 495Q392 588 433 660T547 774T712 816Q850 816 954 725L911 682Q877 718 825 737T714 757Q601 757 529
684T456 495Q456 379 528 306T714 232Q771 232 822 251T912 308L954 264Z" />
<glyph unicode="&#xaa;" horiz-adv-x="849" d="M674 810H620L615 940Q581 876 518 838T372 800Q266 800 196 860T125 1012Q125 1078 163 1127T266 1204T407 1232Q460 1232 513 1218T613 1173V1220Q613 1333 558 1397T406 1462Q353 1462 298 1442T200 1385L167
1435Q273 1520 408 1520Q531 1520 602 1446T674 1245V810ZM379 855Q445 855 498 881T582 953T613 1058V1116Q523 1183 407 1183Q311 1183 249 1135T187 1012Q187 943 241 899T379 855Z" />
<glyph unicode="&#xab;" horiz-adv-x="1097" d="M508 111H418L95 497L418 882H508L182 496L508 111ZM922 111H832L509 497L832 882H922L596 496L922 111Z" />
<glyph unicode="&#xac;" horiz-adv-x="1123" d="M948 133H872V500H175V569H948V133Z" />
<glyph unicode="&#xad;" horiz-adv-x="1168" d="M986 467H182V537H986V467Z" />
<glyph unicode="&#xae;" horiz-adv-x="1389" d="M695 424Q522 424 386 501T173 714T95 1023Q95 1196 172 1331T386 1543T695 1621Q868 1621 1003 1544T1216 1331T1294 1023Q1294 850 1217 715T1004 502T695 424ZM695 487Q849 487 969 556T1158 746T1228 1021Q1228
1176 1158 1297T968 1489T695 1559Q542 1559 422 1489T231 1298T161 1021Q161 867 230 746T420 556T695 487ZM948 701H875L728 969H572V703H508V1345H696Q803 1345 864 1295T926 1157Q926 1092 891 1047T793 983L948 701ZM572 1028H700Q775 1028 818 1063T861 1158Q861
1217 817 1251T693 1286H572V1028Z" />
<glyph unicode="&#xaf;" horiz-adv-x="980" d="M805 1319H175V1377H805V1319Z" />
<glyph unicode="&#xb0;" horiz-adv-x="705" d="M352 1005Q278 1005 220 1038T129 1130T95 1263Q95 1338 128 1395T220 1486T352 1520Q427 1520 485 1487T576 1395T610 1263Q610 1188 577 1130T485 1039T352 1005ZM352 1062Q438 1062 493 1119T548 1263Q548 1350
493 1406T352 1463Q267 1463 212 1407T157 1263Q157 1175 212 1119T352 1062Z" />
<glyph unicode="&#xb1;" horiz-adv-x="1168" d="M622 229H546V607H182V677H546V1041H622V677H986V607H622V229ZM986 0H182V68H986V0Z" />
<glyph unicode="&#xb2;" horiz-adv-x="789" d="M624 790H202V834Q318 931 393 1015T505 1171T543 1307Q543 1378 503 1422T397 1467Q344 1467 297 1436T218 1349L175 1380Q212 1446 272 1483T401 1520Q490 1520 546 1461T603 1311Q603 1244 569 1170T465 1015T289
844H624V790Z" />
<glyph unicode="&#xb3;" horiz-adv-x="762" d="M165 879L196 923Q277 843 373 843Q444 843 490 888T536 1000Q536 1070 483 1108T331 1146H301V1195H331Q408 1195 459 1236T510 1339Q510 1394 470 1430T367 1467Q279 1467 219 1397L184 1438Q260 1520 371 1520Q457
1520 513 1471T569 1345Q569 1287 536 1241T446 1174Q515 1159 556 1111T597 994Q597 905 535 848T376 791Q254 791 165 879Z" />
<glyph unicode="&#xb4;" horiz-adv-x="474" d="M177 1169H115L281 1500H369L177 1169Z" />
<glyph unicode="&#xb5;" horiz-adv-x="1322" d="M1264 -20Q1144 -20 1075 35T982 204Q935 97 841 39T615 -20Q358 -20 255 194V-500H177V1000H256V447Q256 265 351 160T611 55Q775 55 867 159T959 447V1000H1041V306Q1041 47 1266 47L1264 -20Z" />
<glyph unicode="&#xb6;" horiz-adv-x="1258" d="M1083 -150H1013V1432H759V-150H689V652Q520 652 401 703T218 849T155 1080Q155 1213 215 1307T392 1450T671 1500H1083V-150Z" />
<glyph unicode="&#xb7;" horiz-adv-x="443" d="M222 463Q193 463 174 482T155 530Q155 559 174 578T222 597Q250 597 269 578T288 530Q288 501 269 482T222 463Z" />
<glyph unicode="&#xb8;" horiz-adv-x="633" d="M145 -389L164 -335Q216 -355 268 -355Q338 -355 382 -323T427 -242Q427 -193 384 -163T272 -133Q263 -133 255 -133T237 -135L292 7H346L307 -92Q385 -95 436 -136T487 -245Q487 -317 428 -363T274 -410Q212 -410
145 -389Z" />
<glyph unicode="&#xb9;" horiz-adv-x="491" d="M316 780H255V1438L114 1388L95 1438L266 1500H316V780Z" />
<glyph unicode="&#xba;" horiz-adv-x="902" d="M452 800Q350 800 269 847T142 975T95 1160Q95 1264 141 1345T268 1473T453 1520Q555 1520 635 1474T761 1346T807 1160Q807 1056 761 975T635 847T452 800ZM452 856Q538 856 604 895T708 1003T747 1160Q747 1249
709 1317T604 1425T452 1465Q367 1465 300 1425T195 1317T156 1160Q156 1072 194 1004T300 896T452 856Z" />
<glyph unicode="&#xbb;" horiz-adv-x="1097" d="M265 111H175L500 496L175 882H265L588 497L265 111ZM679 111H589L914 496L589 882H679L1002 497L679 111Z" />
<glyph unicode="&#xbc;" horiz-adv-x="1606" d="M326 0H255L1273 1540H1337L326 0ZM366 780H305V1438L164 1388L145 1438L316 1500H366V780ZM1378 0H1318V185H958V233L1327 720H1378V239H1461V185H1378V0ZM1023 239H1318V628L1023 239Z" />
<glyph unicode="&#xbd;" horiz-adv-x="1659" d="M326 0H255L1273 1540H1337L326 0ZM366 780H305V1438L164 1388L145 1438L316 1500H366V780ZM1514 0H1095V30Q1215 130 1290 213T1402 369T1439 508Q1439 587 1395 636T1282 686Q1181 686 1116 578L1075 610Q1110
672 1166 706T1288 740Q1379 740 1439 679T1500 520Q1500 449 1464 372T1359 215T1190 54H1514V0Z" />
<glyph unicode="&#xbe;" horiz-adv-x="1635" d="M354 0H283L1302 1540H1366L354 0ZM145 879L174 925Q250 851 336 851Q406 851 453 894T501 1000Q501 1067 445 1109T299 1151H278V1200H295Q373 1200 424 1241T475 1345Q475 1399 436 1432T336 1466Q258 1466 195
1409L164 1447Q238 1520 341 1520Q426 1520 479 1474T533 1353Q533 1292 496 1245T398 1178Q473 1163 517 1115T561 997Q561 912 498 855T339 798Q228 798 145 879ZM1407 0H1347V185H987V233L1356 720H1407V239H1490V185H1407V0ZM1052 239H1347V628L1052 239Z"
/>
<glyph unicode="&#xbf;" horiz-adv-x="913" d="M512 1030Q541 1030 560 1011T579 964Q579 935 560 916T512 897Q484 897 465 916T446 964Q446 992 465 1011T512 1030ZM772 -317L818 -387Q651 -520 469 -520Q367 -520 290 -479T169 -365T125 -194Q125 -126 145
-76T197 15T268 99Q316 153 363 217T442 377T474 616H551Q551 460 518 358T437 188T340 66Q288 8 250 -49T211 -190Q211 -303 282 -371T470 -440Q548 -440 627 -408T772 -317Z" />
<glyph unicode="&#xc0;" horiz-adv-x="1487" d="M754 1669H691L500 2000H587L754 1669ZM159 0H65L693 1500H795L1422 0H1329L1136 460H350L159 0ZM383 540H1104L743 1406L383 540Z" />
<glyph unicode="&#xc1;" horiz-adv-x="1487" d="M781 1669H720L886 2000H974L781 1669ZM159 0H65L693 1500H795L1422 0H1329L1136 460H350L159 0ZM383 540H1104L743 1406L383 540Z" />
<glyph unicode="&#xc2;" horiz-adv-x="1487" d="M994 1669H930L743 1954L556 1669H492L700 2000H787L994 1669ZM159 0H65L693 1500H795L1422 0H1329L1136 460H350L159 0ZM383 540H1104L743 1406L383 540Z" />
<glyph unicode="&#xc3;" horiz-adv-x="1487" d="M1049 1933Q1038 1854 993 1809T878 1764Q831 1764 797 1783T726 1833Q701 1854 673 1871T606 1889Q510 1889 489 1774H437Q463 1944 605 1944Q658 1944 694 1923T761 1877Q789 1855 817 1838T884 1820Q976 1820
997 1933H1049ZM159 0H65L693 1500H795L1422 0H1329L1136 460H350L159 0ZM383 540H1104L743 1406L383 540Z" />
<glyph unicode="&#xc4;" horiz-adv-x="1487" d="M159 0H65L693 1500H795L1422 0H1329L1136 460H350L159 0ZM383 540H1104L743 1406L383 540ZM958 1785Q930 1785 913 1802T895 1848Q895 1877 912 1894T958 1911Q987 1911 1004 1894T1021 1849Q1021 1820 1004 1803T958
1785ZM531 1785Q502 1785 485 1802T467 1848Q467 1877 484 1894T530 1911Q559 1911 576 1894T594 1849Q594 1820 577 1803T531 1785Z" />
<glyph unicode="&#xc5;" horiz-adv-x="1488" d="M743 1606Q651 1606 595 1661T539 1808Q539 1899 595 1954T743 2010Q835 2010 890 1955T946 1808Q946 1717 891 1662T743 1606ZM743 1656Q810 1656 850 1698T891 1808Q891 1876 851 1917T743 1959Q676 1959 636
1918T595 1808Q595 1740 635 1698T743 1656ZM159 0H65L693 1500H795L1423 0H1329L1136 460H350L159 0ZM383 540H1104L743 1406L383 540Z" />
<glyph unicode="&#xc6;" horiz-adv-x="2096" d="M1971 0H1124L1066 425H382L155 0H55L857 1500H1766L1777 1420H1019L1103 806H1814L1825 726H1113L1202 80H1961L1971 0ZM424 505H1055L929 1429H915L424 505Z" />
<glyph unicode="&#xc7;" horiz-adv-x="1553" d="M1428 194Q1331 95 1200 37T913 -29L888 -92Q967 -95 1017 -136T1068 -245Q1068 -317 1009 -363T855 -410Q794 -410 726 -389L746 -335Q797 -355 850 -355Q919 -355 963 -323T1008 -242Q1008 -193 965 -163T853
-133Q845 -133 836 -133T818 -135L859 -30Q694 -27 555 32T314 195T155 441T98 750Q98 919 155 1061T317 1309T563 1472T872 1530Q1040 1530 1182 1471T1427 1307L1366 1244Q1274 1341 1148 1395T871 1450Q723 1450 599 1398T382 1252T239 1029T188 750Q188 598
239 471T382 249T598 102T871 50Q1021 50 1147 105T1366 256L1428 194Z" />
<glyph unicode="&#xc8;" horiz-adv-x="1236" d="M673 1669H610L418 2000H506L673 1669ZM175 0V1500H1061V1420H263V807H1020V727H263V80H1071V0H175Z" />
<glyph unicode="&#xc9;" horiz-adv-x="1236" d="M638 1669H576L743 2000H830L638 1669ZM175 0V1500H1061V1420H263V807H1020V727H263V80H1071V0H175Z" />
<glyph unicode="&#xca;" horiz-adv-x="1236" d="M877 1669H813L626 1954L439 1669H375L583 2000H669L877 1669ZM175 0V1500H1061V1420H263V807H1020V727H263V80H1071V0H175Z" />
<glyph unicode="&#xcb;" horiz-adv-x="1236" d="M175 0V1500H1061V1420H263V807H1020V727H263V80H1071V0H175ZM832 1785Q804 1785 787 1802T769 1848Q769 1877 786 1894T832 1911Q861 1911 878 1894T895 1849Q895 1820 878 1803T832 1785ZM405 1785Q376 1785 359
1802T341 1848Q341 1877 358 1894T404 1911Q433 1911 450 1894T468 1849Q468 1820 451 1803T405 1785Z" />
<glyph unicode="&#xcc;" horiz-adv-x="438" d="M217 1669L50 2000H-38L154 1669H217ZM263 1500H175V0H263V1500Z" />
<glyph unicode="&#xcd;" horiz-adv-x="438" d="M227 1669L420 2000H332L165 1669H227ZM263 1500H175V0H263V1500Z" />
<glyph unicode="&#xce;" horiz-adv-x="440" d="M470 1669L263 2000H176L-32 1669H32L219 1954L406 1669H470ZM263 1500H175V0H263V1500Z" />
<glyph unicode="&#xcf;" horiz-adv-x="438" d="M263 1500H175V0H263V1500ZM433 1785Q405 1785 388 1802T370 1848Q370 1877 387 1894T433 1911Q462 1911 479 1894T496 1849Q496 1820 479 1803T433 1785ZM6 1785Q-23 1785 -40 1802T-58 1848Q-58 1877 -41 1894T5
1911Q34 1911 51 1894T69 1849Q69 1820 52 1803T6 1785Z" />
<glyph unicode="&#xd0;" horiz-adv-x="1579" d="M207 0V715H35V783H207V1500H600Q878 1500 1076 1411T1379 1155T1484 750Q1484 514 1379 346T1076 89T600 0H207ZM835 715H295V80H606Q855 80 1031 159T1300 389T1394 750Q1394 961 1301 1111T1031 1340T606 1420H295V783H835V715Z"
/>
<glyph unicode="&#xd1;" horiz-adv-x="1611" d="M1122 1948Q1111 1868 1065 1824T951 1779Q903 1779 870 1798T801 1846Q773 1869 745 1886T679 1904Q583 1904 562 1789H510Q535 1958 678 1958Q731 1958 767 1937T834 1891Q862 1869 890 1852T956 1834Q1049 1834
1070 1948H1122ZM1436 0H1336L263 1371V0H175V1500H275L1348 129V1500H1436V0Z" />
<glyph unicode="&#xd2;" horiz-adv-x="1743" d="M919 1669H857L665 2000H752L919 1669ZM872 -30Q705 -30 564 28T318 191T156 438T98 750Q98 919 155 1061T317 1309T563 1472T872 1530Q1040 1530 1180 1472T1425 1309T1587 1062T1645 750Q1645 581 1588 439T1426
191T1181 28T872 -30ZM872 50Q1019 50 1144 102T1361 249T1504 471T1555 750Q1555 901 1504 1029T1361 1251T1144 1398T872 1450Q724 1450 599 1398T382 1252T239 1029T188 750Q188 599 239 471T382 249T599 102T872 50Z" />
<glyph unicode="&#xd3;" horiz-adv-x="1743" d="M888 1669H825L992 2000H1080L888 1669ZM873 -30Q705 -30 564 28T318 191T156 438T98 750Q98 919 155 1061T317 1309T563 1472T873 1530Q1040 1530 1181 1472T1426 1309T1587 1062T1645 750Q1645 581 1588 439T1426
191T1181 28T873 -30ZM872 50Q1019 50 1144 102T1361 249T1504 471T1555 750Q1555 901 1504 1029T1361 1251T1144 1398T872 1450Q724 1450 599 1398T382 1252T239 1029T188 750Q188 599 239 471T382 249T599 102T872 50Z" />
<glyph unicode="&#xd4;" horiz-adv-x="1743" d="M1125 1669H1061L874 1954L687 1669H623L831 2000H917L1125 1669ZM873 -30Q705 -30 564 28T318 191T156 438T98 750Q98 919 155 1061T317 1309T563 1472T873 1530Q1040 1530 1181 1472T1426 1309T1587 1062T1645
750Q1645 581 1588 439T1426 191T1181 28T873 -30ZM872 50Q1019 50 1144 102T1361 249T1504 471T1555 750Q1555 901 1504 1029T1361 1251T1144 1398T872 1450Q724 1450 599 1398T382 1252T239 1029T188 750Q188 599 239 471T382 249T599 102T872 50Z" />
<glyph unicode="&#xd5;" horiz-adv-x="1743" d="M1177 1933Q1166 1854 1121 1809T1006 1764Q959 1764 925 1783T854 1833Q829 1854 801 1871T734 1889Q638 1889 617 1774H565Q591 1944 733 1944Q786 1944 822 1923T889 1877Q917 1855 945 1838T1012 1820Q1104
1820 1125 1933H1177ZM872 -30Q704 -30 563 28T318 191T156 438T98 750Q98 919 155 1061T317 1309T563 1472T872 1530Q1040 1530 1180 1472T1425 1309T1587 1062T1645 750Q1645 581 1588 439T1426 191T1180 28T872 -30ZM872 50Q1019 50 1144 102T1361 249T1504
471T1555 750Q1555 901 1504 1029T1361 1251T1144 1398T872 1450Q724 1450 599 1398T382 1252T239 1029T188 750Q188 599 239 471T382 249T599 102T872 50Z" />
<glyph unicode="&#xd6;" horiz-adv-x="1743" d="M872 -30Q705 -30 564 28T318 191T156 438T98 750Q98 919 155 1061T317 1309T563 1472T872 1530Q1040 1530 1180 1472T1425 1309T1587 1062T1645 750Q1645 581 1588 439T1426 191T1181 28T872 -30ZM872 50Q1019
50 1144 102T1361 249T1504 471T1555 750Q1555 901 1504 1029T1361 1251T1144 1398T872 1450Q724 1450 599 1398T382 1252T239 1029T188 750Q188 599 239 471T382 249T599 102T872 50ZM1085 1785Q1057 1785 1040 1802T1022 1848Q1022 1877 1039 1894T1085 1911Q1114
1911 1131 1894T1148 1849Q1148 1820 1131 1803T1085 1785ZM658 1785Q629 1785 612 1802T594 1848Q594 1877 611 1894T657 1911Q686 1911 703 1894T721 1849Q721 1820 704 1803T658 1785Z" />
<glyph unicode="&#xd7;" horiz-adv-x="1068" d="M869 117L534 453L199 117L148 168L484 503L148 838L199 889L534 553L869 889L920 838L584 503L920 168L869 117Z" />
<glyph unicode="&#xd8;" horiz-adv-x="1743" d="M569 -57L516 -35L546 36Q411 94 310 199T154 444T98 750Q98 919 155 1061T317 1309T563 1472T872 1530Q946 1530 1015 1519T1146 1485L1176 1556L1228 1535L1199 1464Q1334 1405 1434 1301T1589 1056T1644 750Q1644
581 1587 439T1426 191T1181 28T872 -30Q799 -30 731 -19T598 15L569 -57ZM577 112L1115 1409Q1059 1429 998 1439T871 1450Q724 1450 599 1398T382 1252T239 1029T188 750Q188 603 236 478T372 259T577 112ZM871 50Q1019 50 1144 102T1361 249T1503 471T1554 750Q1554
897 1506 1021T1372 1240T1167 1387L629 91Q685 71 746 61T871 50Z" />
<glyph unicode="&#xd9;" horiz-adv-x="1575" d="M836 1669H773L581 2000H669L836 1669ZM1400 1500V668Q1400 451 1327 294T1116 54T788 -30Q597 -30 460 54T249 294T175 668V1500H263V666Q263 476 327 338T508 125T788 50Q950 50 1067 124T1248 337T1312 666V1500H1400Z" />
<glyph unicode="&#xda;" horiz-adv-x="1575" d="M804 1669H741L908 2000H996L804 1669ZM1400 1500V668Q1400 451 1327 294T1116 54T788 -30Q597 -30 460 54T249 294T175 668V1500H263V666Q263 476 327 338T508 125T788 50Q950 50 1067 124T1248 337T1312 666V1500H1400Z" />
<glyph unicode="&#xdb;" horiz-adv-x="1575" d="M1041 1669H977L790 1954L603 1669H539L747 2000H833L1041 1669ZM1400 1500V668Q1400 451 1327 294T1116 54T788 -30Q597 -30 460 54T249 294T175 668V1500H263V666Q263 476 327 338T508 125T788 50Q950 50 1067
124T1248 337T1312 666V1500H1400Z" />
<glyph unicode="&#xdc;" horiz-adv-x="1575" d="M1400 1500V668Q1400 451 1327 294T1116 54T787 -30Q597 -30 460 54T249 294T175 668V1500H263V666Q263 476 327 338T508 125T787 50Q950 50 1067 124T1248 337T1312 666V1500H1400ZM1001 1785Q973 1785 956 1802T938
1848Q938 1877 955 1894T1001 1911Q1030 1911 1047 1894T1064 1849Q1064 1820 1047 1803T1001 1785ZM574 1785Q545 1785 528 1802T510 1848Q510 1877 527 1894T573 1911Q602 1911 619 1894T637 1849Q637 1820 620 1803T574 1785Z" />
<glyph unicode="&#xdd;" horiz-adv-x="1362" d="M697 1669H635L802 2000H889L697 1669ZM724 0H636V641L45 1500H151L681 720L1211 1500H1317L724 640V0Z" />
<glyph unicode="&#xde;" horiz-adv-x="1194" d="M257 0H175V1500H257V1176H562Q709 1176 816 1125T981 978T1039 750Q1039 619 981 523T816 375T562 323H257V0ZM257 398H557Q743 398 849 492T955 750Q955 915 849 1008T557 1101H257V398Z" />
<glyph unicode="&#xdf;" horiz-adv-x="1111" d="M264 0H175V1128Q175 1248 222 1338T354 1479T550 1530Q658 1530 742 1485T875 1359T924 1177Q924 1105 900 1053T837 962T750 887Q715 861 691 837T666 783Q666 760 688 738T771 675Q810 650 848 621T918 556T967
472T986 362Q986 254 931 168T781 31T570 -20L553 59Q650 59 727 100T849 213T895 371Q895 441 867 488T796 569T707 632Q657 664 618 698T578 786Q578 833 610 865T685 929Q720 955 754 986T811 1061T834 1171Q834 1252 797 1314T696 1413T549 1450Q420 1450 342
1359T264 1118V0Z" />
<glyph unicode="&#xe0;" horiz-adv-x="1087" d="M607 1169H544L353 1500H440L607 1169ZM925 0H857L848 201Q802 100 707 40T487 -20Q384 -20 302 21T172 132T125 292Q125 387 177 459T320 573T529 615Q615 615 696 592T843 525V619Q843 721 804 793T693 905T525
945Q443 945 365 916T221 829L186 901Q263 959 354 989T537 1020Q656 1020 743 971T877 830T925 615V0ZM499 55Q596 55 674 100T797 222T843 394V441Q777 492 701 518T539 544Q394 544 302 475T210 298Q210 229 248 174T351 87T499 55Z" />
<glyph unicode="&#xe1;" horiz-adv-x="1087" d="M555 1169H493L659 1500H747L555 1169ZM925 0H857L848 201Q802 100 707 40T487 -20Q384 -20 302 21T172 132T125 292Q125 387 177 459T320 573T529 615Q615 615 696 592T843 525V619Q843 721 804 793T693 905T525
945Q443 945 365 916T221 829L186 901Q263 959 354 989T537 1020Q656 1020 743 971T877 830T925 615V0ZM499 55Q596 55 674 100T797 222T843 394V441Q777 492 701 518T539 544Q394 544 302 475T210 298Q210 229 248 174T351 87T499 55Z" />
<glyph unicode="&#xe2;" horiz-adv-x="1087" d="M797 1169H734L547 1454L359 1169H296L503 1500H590L797 1169ZM925 0H857L848 201Q802 100 707 40T487 -20Q384 -20 302 21T172 132T125 292Q125 387 177 459T320 573T529 615Q615 615 696 592T843 525V619Q843
721 804 793T693 905T525 945Q443 945 365 916T221 829L186 901Q263 959 354 989T537 1020Q656 1020 743 971T877 830T925 615V0ZM499 55Q596 55 674 100T797 222T843 394V441Q777 492 701 518T539 544Q394 544 302 475T210 298Q210 229 248 174T351 87T499 55Z"
/>
<glyph unicode="&#xe3;" horiz-adv-x="1087" d="M850 1433Q838 1354 793 1309T678 1264Q631 1264 597 1283T526 1333Q500 1355 472 1372T406 1389Q310 1389 289 1274H237Q262 1444 406 1444Q459 1444 495 1423T562 1377Q589 1355 617 1338T684 1320Q777 1320 798
1433H850ZM925 0H857L848 201Q802 100 707 40T487 -20Q384 -20 302 21T172 132T125 292Q125 387 177 459T320 573T529 615Q615 615 696 592T843 525V619Q843 721 804 793T693 905T525 945Q443 945 365 916T221 829L186 901Q263 959 354 989T537 1020Q656 1020 743
971T877 830T925 615V0ZM499 55Q596 55 673 100T797 222T843 394V441Q777 492 701 518T539 544Q394 544 302 475T210 298Q210 229 248 174T351 87T499 55Z" />
<glyph unicode="&#xe4;" horiz-adv-x="1087" d="M925 0H857L848 201Q802 100 707 40T487 -20Q384 -20 302 21T172 132T125 292Q125 387 177 459T320 573T529 615Q615 615 696 592T843 525V619Q843 721 804 793T693 905T525 945Q443 945 365 916T221 829L186 901Q263
959 354 989T537 1020Q656 1020 743 971T877 830T925 615V0ZM500 55Q595 55 672 98T796 218T843 391V441Q775 492 699 518T538 544Q394 544 302 475T210 298Q210 229 248 174T351 87T500 55ZM777 1285Q749 1285 732 1302T714 1348Q714 1377 731 1394T777 1411Q806
1411 823 1394T840 1349Q840 1320 823 1303T777 1285ZM350 1285Q321 1285 304 1302T286 1348Q286 1377 303 1394T349 1411Q378 1411 395 1394T413 1349Q413 1320 396 1303T350 1285Z" />
<glyph unicode="&#xe5;" horiz-adv-x="1087" d="M554 1116Q462 1116 406 1171T350 1318Q350 1409 406 1464T554 1520Q645 1520 701 1465T757 1318Q757 1227 701 1172T554 1116ZM554 1167Q620 1167 660 1208T701 1318Q701 1386 661 1427T554 1469Q487 1469 447
1428T406 1318Q406 1249 446 1208T554 1167ZM925 0H857L848 201Q802 100 707 40T487 -20Q384 -20 302 21T172 132T125 292Q125 387 177 459T320 573T529 615Q615 615 696 592T843 525V619Q843 721 804 793T693 905T525 945Q443 945 365 916T221 829L186 901Q263
959 354 989T537 1020Q656 1020 743 971T877 830T925 615V0ZM499 55Q596 55 674 100T797 222T843 394V441Q777 492 701 518T539 544Q394 544 302 475T210 298Q210 229 248 174T351 87T499 55Z" />
<glyph unicode="&#xe6;" horiz-adv-x="1925" d="M1782 119Q1601 -27 1376 -27Q1209 -27 1081 55T895 275Q873 188 817 122T679 18T498 -20Q391 -20 307 22T174 138T125 304Q125 400 177 474T320 590T528 633Q698 633 843 542V607Q842 763 757 854T524 945Q354
945 221 829L186 901Q263 959 353 989T535 1020Q680 1020 775 946T901 739Q959 865 1076 939T1345 1013Q1488 1013 1597 947T1768 764T1830 494V465H929Q935 343 995 249T1156 102T1380 48Q1576 48 1741 180L1782 119ZM927 533H1755Q1752 653 1699 744T1554 887T1346
938Q1228 938 1135 887T986 744T927 533ZM843 460Q775 510 697 536T537 562Q442 562 368 529T252 439T210 306Q210 235 248 178T352 88T503 55Q598 55 675 97T797 214T843 385V460Z" />
<glyph unicode="&#xe7;" horiz-adv-x="1083" d="M981 134Q917 66 830 27T640 -19L611 -92Q690 -95 740 -136T791 -245Q791 -317 732 -363T579 -410Q517 -410 450 -389L469 -335Q521 -355 573 -355Q642 -355 687 -323T732 -242Q732 -193 688 -163T576 -133Q568
-133 559 -133T541 -135L586 -20Q446 -14 335 55T160 240T95 500Q95 648 163 765T347 951T610 1020Q720 1020 815 980T981 866L930 813Q870 875 788 910T612 945Q489 945 391 887T236 728T179 500Q179 373 235 273T390 114T612 55Q706 55 788 90T930 187L981 134Z"
/>
<glyph unicode="&#xe8;" horiz-adv-x="1178" d="M1034 127Q852 -20 627 -20Q474 -20 354 48T164 236T95 509Q95 657 159 772T337 954T594 1020Q738 1020 848 954T1021 769T1083 497V468H182Q188 347 248 254T409 108T633 55Q829 55 993 188L1034 127ZM180 540H1006Q1000
660 947 751T803 893T597 945Q481 945 389 893T242 751T180 540ZM646 1169H583L392 1500H479L646 1169Z" />
<glyph unicode="&#xe9;" horiz-adv-x="1178" d="M1034 127Q852 -20 627 -20Q474 -20 354 48T164 236T95 509Q95 657 159 772T337 954T594 1020Q738 1020 848 954T1021 769T1083 497V468H182Q188 347 248 254T409 108T633 55Q829 55 993 188L1034 127ZM180 540H1006Q1000
660 947 751T803 893T597 945Q481 945 389 893T242 751T180 540ZM624 1169H562L728 1500H816L624 1169Z" />
<glyph unicode="&#xea;" horiz-adv-x="1178" d="M1034 127Q852 -20 627 -20Q474 -20 354 48T164 236T95 509Q95 657 159 772T337 954T594 1020Q738 1020 848 954T1021 769T1083 497V468H182Q188 347 248 254T409 108T633 55Q829 55 993 188L1034 127ZM180 540H1006Q1000
660 947 751T803 893T597 945Q481 945 389 893T242 751T180 540ZM840 1169H776L589 1454L402 1169H338L545 1500H632L840 1169Z" />
<glyph unicode="&#xeb;" horiz-adv-x="1178" d="M1034 127Q852 -20 627 -20Q474 -20 354 48T164 236T95 509Q95 657 159 772T337 954T594 1020Q738 1020 848 954T1021 769T1083 497V468H182Q188 347 248 254T409 108T633 55Q829 55 993 188L1034 127ZM180 540H1006Q1000
660 947 751T803 893T597 945Q481 945 389 893T242 751T180 540ZM803 1285Q775 1285 758 1302T740 1348Q740 1377 757 1394T803 1411Q832 1411 849 1394T866 1349Q866 1320 849 1303T803 1285ZM376 1285Q347 1285 330 1302T312 1348Q312 1377 329 1394T375 1411Q404
1411 421 1394T439 1349Q439 1320 422 1303T376 1285Z" />
<glyph unicode="&#xec;" horiz-adv-x="433" d="M256 1169H193L1 1500H89L256 1169ZM258 0H176V1000H258V0Z" />
<glyph unicode="&#xed;" horiz-adv-x="432" d="M242 1169H180L346 1500H434L242 1169ZM257 0H175V1000H257V0Z" />
<glyph unicode="&#xee;" horiz-adv-x="433" d="M470 1169H406L219 1454L32 1169H-32L176 1500H262L470 1169ZM258 0H175V1000H258V0Z" />
<glyph unicode="&#xef;" horiz-adv-x="432" d="M257 0H175V1000H257V0ZM430 1285Q402 1285 385 1302T367 1348Q367 1377 384 1394T430 1411Q459 1411 476 1394T493 1349Q493 1320 476 1303T430 1285ZM3 1285Q-26 1285 -43 1302T-61 1348Q-61 1377 -44 1394T2 1411Q31
1411 48 1394T66 1349Q66 1320 49 1303T3 1285Z" />
<glyph unicode="&#xf0;" horiz-adv-x="1140" d="M968 1307L767 1221Q897 1061 971 873T1045 500Q1045 338 989 219T829 35T586 -30Q451 -30 347 29T184 193T125 431Q125 563 181 664T337 824T565 882Q698 882 800 817T958 638Q932 783 863 925T691 1189L296 1019L276
1068L655 1230Q601 1290 541 1342T412 1439L455 1500Q533 1451 602 1391T732 1263L947 1354L968 1307ZM579 50Q684 50 767 100T898 236T947 430Q947 538 898 623T766 758T575 808Q470 808 389 760T261 628T214 434Q214 324 261 237T392 100T579 50Z" />
<glyph unicode="&#xf1;" horiz-adv-x="1223" d="M921 1433Q909 1354 864 1309T749 1264Q702 1264 668 1283T599 1331Q572 1354 544 1371T478 1389Q381 1389 360 1274H308Q334 1444 477 1444Q530 1444 566 1423T633 1377Q660 1355 688 1338T755 1320Q848 1320 869
1433H921ZM1062 0H980V561Q980 740 885 842T624 945Q456 945 357 840T257 555V0H175V1000H250L252 786Q302 901 399 960T635 1020Q835 1020 948 900T1062 566V0Z" />
<glyph unicode="&#xf2;" horiz-adv-x="1218" d="M657 1169H595L403 1500H490L657 1169ZM610 -20Q464 -20 348 48T163 234T95 500Q95 648 163 765T347 951T610 1020Q757 1020 873 952T1056 766T1123 500Q1123 353 1056 235T873 49T610 -20ZM610 55Q732 55 829 113T982
273T1039 500Q1039 627 983 727T829 887T610 946Q488 946 390 887T236 728T179 500Q179 374 235 273T390 114T610 55Z" />
<glyph unicode="&#xf3;" horiz-adv-x="1218" d="M625 1169H563L730 1500H818L625 1169ZM610 -20Q464 -20 348 48T163 234T95 500Q95 648 163 765T347 951T610 1020Q757 1020 873 952T1056 766T1123 500Q1123 353 1056 235T873 49T610 -20ZM610 55Q732 55 829 113T982
273T1039 500Q1039 627 983 727T829 887T610 946Q488 946 390 887T236 728T179 500Q179 374 235 273T390 114T610 55Z" />
<glyph unicode="&#xf4;" horiz-adv-x="1218" d="M863 1169H799L612 1454L425 1169H361L569 1500H655L863 1169ZM610 -20Q464 -20 348 48T163 234T95 500Q95 648 163 765T347 951T610 1020Q757 1020 873 952T1056 766T1123 500Q1123 353 1056 235T873 49T610 -20ZM610
55Q732 55 829 113T982 273T1039 500Q1039 627 983 727T829 887T610 946Q488 946 390 887T236 728T179 500Q179 374 235 273T390 114T610 55Z" />
<glyph unicode="&#xf5;" horiz-adv-x="1218" d="M919 1433Q908 1354 863 1309T748 1264Q701 1264 667 1283T598 1331Q571 1354 543 1371T476 1389Q380 1389 359 1274H307Q332 1444 476 1444Q529 1444 565 1423T631 1377Q659 1355 687 1338T753 1320Q847 1320 868
1433H919ZM610 -20Q464 -20 348 48T163 234T95 500Q95 648 163 765T347 951T610 1020Q757 1020 873 952T1056 766T1123 500Q1123 353 1056 235T873 49T610 -20ZM610 55Q732 55 829 113T982 273T1039 500Q1039 627 983 727T829 887T610 946Q488 946 390 887T236
728T179 500Q179 374 235 273T390 114T610 55Z" />
<glyph unicode="&#xf6;" horiz-adv-x="1218" d="M630 -20Q484 -20 368 48T183 234T115 500Q115 648 183 765T367 951T630 1020Q777 1020 893 952T1076 766T1143 500Q1143 352 1076 235T893 49T630 -20ZM630 55Q752 55 849 113T1002 272T1059 500Q1059 627 1003
727T849 886T630 945Q508 945 410 887T256 728T199 500Q199 373 255 273T410 114T630 55ZM823 1285Q795 1285 778 1302T760 1348Q760 1377 777 1394T823 1411Q852 1411 869 1394T886 1349Q886 1320 869 1303T823 1285ZM396 1285Q367 1285 350 1302T332 1348Q332
1377 349 1394T395 1411Q424 1411 441 1394T459 1349Q459 1320 442 1303T396 1285Z" />
<glyph unicode="&#xf7;" horiz-adv-x="1150" d="M575 847Q547 847 528 866T509 913Q509 941 528 960T575 980Q603 980 622 961T642 913Q642 885 623 866T575 847ZM975 446H175V514H975V446ZM575 -20Q547 -20 528 -1T509 47Q509 74 528 93T575 113Q603 113 622
94T642 47Q642 19 623 0T575 -20Z" />
<glyph unicode="&#xf8;" horiz-adv-x="1218" d="M409 -65L353 -43L383 30Q253 92 174 216T95 500Q95 648 163 765T347 951T610 1020Q656 1020 698 1013T781 992L809 1061L865 1038L837 970Q966 908 1044 784T1123 500Q1123 353 1056 235T873 49T610 -20Q565 -20
522 -13T438 8L409 -65ZM413 102L752 922Q683 946 610 946Q488 946 390 887T236 728T179 500Q179 366 243 261T413 102ZM610 55Q732 55 829 113T983 273T1040 500Q1040 634 976 739T807 898L468 78Q535 55 610 55Z" />
<glyph unicode="&#xf9;" horiz-adv-x="1203" d="M682 1169H619L428 1500H515L682 1169ZM1028 0H954L952 213Q903 100 807 40T575 -20Q378 -20 267 100T155 435V1000H237V439Q237 260 330 158T586 55Q751 55 848 161T946 445V1000H1028V0Z" />
<glyph unicode="&#xfa;" horiz-adv-x="1203" d="M530 1169H468L634 1500H722L530 1169ZM1028 0H954L952 213Q903 100 807 40T575 -20Q378 -20 267 100T155 435V1000H237V439Q237 260 330 158T586 55Q751 55 848 161T946 445V1000H1028V0Z" />
<glyph unicode="&#xfb;" horiz-adv-x="1203" d="M846 1169H782L595 1454L408 1169H344L552 1500H638L846 1169ZM1028 0H954L952 213Q903 100 807 40T575 -20Q378 -20 267 100T155 435V1000H237V439Q237 260 330 158T586 55Q751 55 848 161T946 445V1000H1028V0Z" />
<glyph unicode="&#xfc;" horiz-adv-x="1203" d="M1028 0H954L952 213Q903 100 807 40T575 -20Q378 -20 267 100T155 435V1000H237V439Q237 260 330 158T586 55Q751 55 848 161T946 445V1000H1028V0ZM816 1285Q788 1285 771 1302T753 1348Q753 1377 770 1394T816
1411Q845 1411 862 1394T879 1349Q879 1320 862 1303T816 1285ZM389 1285Q360 1285 343 1302T325 1348Q325 1377 342 1394T388 1411Q417 1411 434 1394T452 1349Q452 1320 435 1303T389 1285Z" />
<glyph unicode="&#xfd;" horiz-adv-x="1114" d="M560 1169H498L664 1500H753L560 1169ZM418 -500H329L541 11L75 1000H165L581 108L950 1000H1039L418 -500Z" />
<glyph unicode="&#xfe;" horiz-adv-x="1300" d="M257 -500H175V1500H257V744Q316 874 434 947T700 1020Q846 1020 960 952T1139 766T1205 500Q1205 353 1140 235T960 49T700 -20Q552 -20 434 53T257 256V-500ZM689 55Q812 55 910 113T1064 272T1121 500Q1121 627
1065 727T910 887T689 946Q571 946 474 892T318 744T257 531V469Q259 350 317 256T473 109T689 55Z" />
<glyph unicode="&#xff;" horiz-adv-x="1114" d="M418 -500H329L540 11L75 1000H165L581 108L950 1000H1039L418 -500ZM791 1285Q763 1285 746 1302T728 1348Q728 1377 745 1394T791 1411Q820 1411 837 1394T854 1349Q854 1320 837 1303T791 1285ZM364 1285Q335
1285 318 1302T300 1348Q300 1377 317 1394T363 1411Q392 1411 409 1394T427 1349Q427 1320 410 1303T364 1285Z" />
<glyph unicode="&#x2013;" horiz-adv-x="1370" d="M1195 466H175V535H1195V466Z" />
<glyph unicode="&#x2014;" horiz-adv-x="2390" d="M2215 466H175V535H2215V466Z" />
<glyph unicode="&#x2018;" horiz-adv-x="520" d="M247 1070H175L292 1520H348L247 1070Z" />
<glyph unicode="&#x2019;" horiz-adv-x="520" d="M228 1070H175L276 1520H345L228 1070Z" />
<glyph unicode="&#x201a;" horiz-adv-x="459" d="M199 -240H135L230 180H314L199 -240Z" />
<glyph unicode="&#x201c;" horiz-adv-x="859" d="M244 1070H175L292 1520H345L244 1070ZM583 1070H514L631 1520H684L583 1070Z" />
<glyph unicode="&#x201d;" horiz-adv-x="859" d="M567 1070H514L615 1520H684L567 1070ZM227 1070H175L276 1520H345L227 1070Z" />
<glyph unicode="&#x201e;" horiz-adv-x="803" d="M543 -240H479L575 180H658L543 -240ZM199 -240H135L230 180H314L199 -240Z" />
<glyph unicode="&#x2022;" horiz-adv-x="495" d="M248 578Q194 578 160 612T125 700Q125 755 159 789T248 823Q303 823 336 789T370 700Q370 646 337 612T248 578Z" />
<glyph unicode="&#x2039;" horiz-adv-x="690" d="M515 111H428L95 503L428 895H515L180 503L515 111Z" />
<glyph unicode="&#x203a;" horiz-adv-x="690" d="M262 111H175L510 503L175 895H262L595 503L262 111Z" />
</font>
</defs>
</svg>
