<?xml version="1.0" standalone="no"?>
<!DOCTYPE svg PUBLIC "-//W3C//DTD SVG 1.1//EN" "http://www.w3.org/Graphics/SVG/1.1/DTD/svg11.dtd">
<svg xmlns="http://www.w3.org/2000/svg">
<defs >
<font id="KumbhSans" horiz-adv-x="1158" ><font-face
    font-family="Kumbh Sans ExtraBold"
    units-per-em="2048"
    panose-1="0 0 0 0 0 0 0 0 0 0"
    ascent="2020"
    descent="-520"
    alphabetic="0" />
<glyph unicode=" " horiz-adv-x="452" />
<glyph unicode="!" horiz-adv-x="491" d="M337 416H154L112 1500H379L337 416ZM245 -20Q182 -20 140 22T98 124Q98 184 140 226T245 268Q308 268 350 226T393 124Q393 64 351 22T245 -20Z" />
<glyph unicode="&quot;" horiz-adv-x="803" d="M317 1085H144L113 1520H347L317 1085ZM660 1085H487L456 1520H690L660 1085Z" />
<glyph unicode="#" horiz-adv-x="1342" d="M1276 832H1060L1013 564H1237L1203 349H975L913 0H655L716 349H476L414 0H156L218 349H31L64 564H256L303 832H104L139 1047H341L421 1500H679L599 1047H839L920 1500H1178L1098 1047H1311L1276 832ZM514 564H754L802
832H561L514 564Z" />
<glyph unicode="$" horiz-adv-x="1099" d="M41 234L187 473Q251 423 308 392T419 345T530 330Q592 330 636 346T705 392T729 463Q729 513 697 546T612 606T500 657Q434 684 367 716T245 792T156 900T122 1055Q122 1209 218 1306T470 1430L463 1620H669L662 1436Q744
1428 830 1403T1003 1335L882 1084Q818 1123 744 1145T606 1168Q531 1168 486 1136T440 1050Q440 1004 472 972T556 913T671 858Q736 830 802 797T924 718T1014 609T1048 457Q1048 356 1001 276T866 142T662 70L669 -120H463L470 63Q354 73 245 117T41 234Z" />
<glyph unicode="%" horiz-adv-x="1609" d="M383 873Q229 873 135 962T41 1196Q41 1342 135 1431T383 1520Q537 1520 631 1431T725 1196Q725 1051 631 962T383 873ZM459 1H192L1159 1501H1426L459 1ZM383 1053Q435 1053 467 1093T500 1197Q500 1262 468 1301T383
1341Q329 1341 297 1302T265 1197Q265 1133 297 1093T383 1053ZM1226 -21Q1073 -21 979 68T885 303Q885 449 979 538T1226 627Q1380 627 1474 538T1568 303Q1568 158 1474 69T1226 -21ZM1226 160Q1279 160 1311 199T1344 303Q1344 368 1312 408T1226 448Q1173 448
1141 408T1109 303Q1109 239 1141 200T1226 160Z" />
<glyph unicode="&amp;" horiz-adv-x="1459" d="M1428 166L1296 -30Q1232 10 1171 51T1052 133Q954 54 841 12T601 -30Q454 -30 336 25T150 176T81 396Q81 494 123 565T235 689T381 786Q317 887 284 982T250 1161Q250 1270 301 1353T444 1483T653 1530Q766 1530
853 1487T990 1368T1040 1193Q1040 1084 992 1009T866 879T705 779Q765 705 843 627T1017 468Q1057 526 1089 596T1144 746L1388 675Q1358 570 1315 479T1218 311Q1275 268 1320 237T1428 166ZM610 918Q655 949 690 984T745 1061T765 1158Q765 1224 735 1265T653
1307Q601 1307 567 1264T533 1151Q533 1101 552 1042T610 918ZM484 644Q454 619 431 592T395 531T382 457Q382 392 414 341T504 260T635 230Q688 230 739 246T840 294Q732 383 643 470T484 644Z" />
<glyph unicode="&apos;" horiz-adv-x="456" d="M315 1085H142L111 1520H345L315 1085Z" />
<glyph unicode="(" horiz-adv-x="659" d="M628 -289H310Q175 -108 103 129T31 625Q31 884 103 1121T310 1540H628Q476 1342 396 1109T316 627Q316 380 396 146T628 -289Z" />
<glyph unicode=")" horiz-adv-x="659" d="M349 -289H31Q183 -89 263 145T343 627Q343 875 263 1108T31 1540H349Q484 1358 556 1121T628 625Q628 366 556 129T349 -289Z" />
<glyph unicode="*" horiz-adv-x="1053" d="M909 739L710 594L526 914L343 594L144 739L389 1013L31 1091L106 1323L442 1174L404 1541H649L611 1174L946 1323L1022 1091L663 1013L909 739Z" />
<glyph unicode="+" horiz-adv-x="1114" d="M1003 356H699V58H414V356H111V614H414V911H699V614H1003V356Z" />
<glyph unicode="," horiz-adv-x="486" d="M287 -240H71L143 196H405L287 -240Z" />
<glyph unicode="-" horiz-adv-x="1022" d="M911 376H111V626H911V376Z" />
<glyph unicode="." horiz-adv-x="493" d="M246 -20Q180 -20 139 20T98 128Q98 194 139 235T246 276Q313 276 353 235T394 128Q394 61 354 21T246 -20Z" />
<glyph unicode="/" horiz-adv-x="969" d="M319 -20H11L650 1520H958L319 -20Z" />
<glyph unicode="0" horiz-adv-x="1256" d="M628 -30Q457 -30 331 61T135 327T65 751Q65 999 134 1173T330 1438T628 1530Q800 1530 926 1439T1122 1173T1191 751Q1191 502 1122 328T927 62T628 -30ZM628 277Q726 277 778 400T831 750Q831 976 779 1099T628 1223Q532
1223 479 1100T425 750Q425 524 478 401T628 277Z" />
<glyph unicode="1" horiz-adv-x="868" d="M735 0H383V1155L141 1067L31 1345L456 1500H735V0Z" />
<glyph unicode="2" horiz-adv-x="1218" d="M1117 0H143V204Q317 363 434 480T620 686T718 849T748 991Q748 1062 722 1114T650 1196T542 1225Q470 1225 403 1185T287 1072L111 1298Q202 1408 335 1469T610 1530Q746 1530 859 1473T1040 1310T1108 1057Q1108 959
1076 862T982 671T833 485T635 307H1117V0Z" />
<glyph unicode="3" horiz-adv-x="1190" d="M89 127L221 388Q300 333 374 305T515 277Q578 277 626 300T703 365T731 462Q731 552 654 602T437 653H370V895H437Q513 895 571 918T663 981T697 1075Q697 1118 674 1151T611 1204T518 1223Q463 1223 400 1199T264 1126L112
1370Q202 1447 315 1488T553 1530Q691 1530 798 1481T967 1344T1029 1144Q1029 1024 961 929T779 782Q928 738 1012 641T1097 407Q1097 282 1026 183T831 27T551 -30Q424 -30 305 10T89 127Z" />
<glyph unicode="4" horiz-adv-x="1308" d="M1094 0H742V288H31V556L743 1500H1094V595H1277V288H1094V0ZM343 595H742V1125L343 595Z" />
<glyph unicode="5" horiz-adv-x="1185" d="M65 153L245 439Q280 367 355 322T516 277Q588 277 643 308T729 393T760 518Q760 589 729 643T641 729T513 760Q456 760 406 739T316 677L147 774L214 1500H1024V1193H535L505 913Q567 928 634 928Q773 928 883 869T1056
707T1120 471Q1120 329 1046 216T843 36T550 -30Q414 -30 287 18T65 153Z" />
<glyph unicode="6" horiz-adv-x="1214" d="M608 -30Q442 -30 321 43T132 251T65 566Q65 710 109 844T238 1097T447 1318T732 1500L893 1276Q779 1216 685 1141T518 982T401 808Q455 863 531 893T700 923Q832 923 933 866T1091 707T1149 474Q1149 327 1079 214T887
35T608 -30ZM607 277Q658 277 699 306T764 386T789 496Q789 557 766 603T702 677T610 704Q557 704 516 677T450 601T426 492Q426 431 450 383T515 306T607 277Z" />
<glyph unicode="7" horiz-adv-x="1077" d="M521 0H139L631 1193H31V1500H1046L1045 1272L521 0Z" />
<glyph unicode="8" horiz-adv-x="1185" d="M592 -30Q432 -30 313 23T127 172T61 398Q61 541 142 644T366 794Q248 838 181 928T114 1143Q114 1260 173 1347T339 1482T592 1530Q736 1530 843 1482T1010 1347T1070 1143Q1070 1019 1003 929T817 794Q960 748 1042
645T1124 399Q1124 271 1058 174T872 24T592 -30ZM592 946Q653 946 690 991T727 1108Q727 1181 690 1226T592 1271Q532 1271 495 1226T457 1108Q457 1036 494 991T592 946ZM592 245Q646 245 686 270T749 342T772 449Q772 510 750 556T687 628T592 654Q538 654 498
629T435 557T412 449Q412 389 434 343T497 271T592 245Z" />
<glyph unicode="9" horiz-adv-x="1214" d="M482 0L322 224Q436 284 530 359T697 518T813 692Q759 636 683 607T513 577Q382 577 281 634T122 793T65 1026Q65 1173 135 1287T328 1465T607 1530Q773 1530 894 1457T1082 1249T1149 934Q1149 790 1105 656T976 403T766
182T482 0ZM604 796Q657 796 698 823T764 899T788 1008Q788 1069 764 1117T700 1194T608 1223Q557 1223 516 1194T450 1115T426 1004Q426 944 449 897T512 823T604 796Z" />
<glyph unicode=":" horiz-adv-x="492" d="M245 682Q183 682 141 725T98 831Q98 893 140 936T245 980Q308 980 351 937T394 831Q394 769 351 726T245 682ZM245 -20Q183 -20 141 23T98 129Q98 191 140 234T245 278Q308 278 351 235T394 129Q394 67 351 24T245 -20Z" />
<glyph unicode=";" horiz-adv-x="486" d="M259 683Q197 683 155 726T112 831Q112 893 154 936T259 980Q322 980 365 937T408 831Q408 769 365 726T259 683ZM287 -240H71L143 196H405L287 -240Z" />
<glyph unicode="&lt;" horiz-adv-x="1055" d="M944 0L31 438V583L944 1020V751L376 510L944 269V0Z" />
<glyph unicode="=" horiz-adv-x="1177" d="M1066 619H111V870H1066V619ZM1066 132H111V383H1066V132Z" />
<glyph unicode="&gt;" horiz-adv-x="1055" d="M111 0V269L678 510L111 751V1020L1024 583V438L111 0Z" />
<glyph unicode="?" horiz-adv-x="939" d="M185 1126L61 1391Q252 1530 480 1530Q612 1530 708 1486T856 1359T908 1161Q908 1088 887 1033T827 932T738 837Q690 789 644 735T567 604T537 416H258Q258 558 288 651T364 806T451 915Q491 959 520 1000T549 1097Q549
1162 507 1202T394 1242Q333 1242 278 1211T185 1126ZM398 -20Q331 -20 291 20T250 128Q250 194 290 235T398 276Q464 276 505 235T546 128Q546 61 505 21T398 -20Z" />
<glyph unicode="@" horiz-adv-x="1891" d="M895 67Q770 67 672 127T518 291T461 530Q461 673 525 789T699 972T946 1040Q1047 1040 1129 1001T1267 889L1274 979H1453Q1446 932 1438 868T1423 734T1409 596T1399 474T1395 389Q1395 326 1422 283T1493 239Q1538
239 1576 288T1636 421T1659 604Q1659 790 1578 930T1351 1148T1014 1227Q855 1227 719 1173T482 1023T324 796T268 513Q268 337 342 203T550 -7T857 -82Q1065 -82 1259 25L1331 -156Q1087 -270 840 -270Q606 -270 427 -171T148 105T47 512Q47 707 119 872T320
1160T625 1350T1006 1418Q1195 1418 1351 1361T1622 1197T1798 945T1860 623Q1860 457 1814 332T1686 136T1496 65Q1409 65 1344 111T1245 242Q1181 157 1091 112T895 67ZM940 257Q1013 257 1074 290T1178 382T1233 518L1239 583Q1239 663 1208 723T1122 817T993
851Q909 851 843 808T737 692T698 526Q698 405 764 331T940 257Z" />
<glyph unicode="A" horiz-adv-x="1587" d="M386 0H17L609 1500H979L1570 0H1201L1091 295H496L386 0ZM609 602H979L794 1094L609 602Z" />
<glyph unicode="B" horiz-adv-x="1333" d="M111 0V1500H674Q924 1500 1061 1396T1199 1104Q1199 994 1149 909T1012 778Q1137 739 1206 648T1276 424Q1276 295 1213 200T1036 53T765 0H111ZM463 884H652Q746 884 799 925T852 1041Q852 1111 799 1152T650 1193H463V884ZM463
307H675Q750 307 804 326T887 382T916 469Q916 519 890 553T815 606T696 625H463V307Z" />
<glyph unicode="C" horiz-adv-x="1490" d="M1421 187Q1316 85 1172 28T858 -30Q687 -30 542 28T290 192T124 440T65 750Q65 918 124 1060T290 1307T542 1471T858 1530Q1027 1530 1170 1473T1419 1312L1173 1065Q1116 1139 1033 1181T852 1223Q761 1223 683 1187T547
1087T457 937T425 751Q425 649 457 564T547 414T683 313T852 277Q950 277 1032 319T1173 435L1421 187Z" />
<glyph unicode="D" horiz-adv-x="1576" d="M111 0V1500H622Q893 1500 1092 1408T1401 1147T1511 750Q1511 523 1401 354T1092 93T622 0H111ZM463 307H634Q800 307 915 358T1090 509T1151 750Q1151 892 1091 991T915 1141T634 1193H463V307Z" />
<glyph unicode="E" horiz-adv-x="1206" d="M111 0V1500H1095V1193H463V906H1055V599H463V307H1105V0H111Z" />
<glyph unicode="F" horiz-adv-x="1161" d="M111 0V1500H1060V1193H463V906H1020V599H463V0H111Z" />
<glyph unicode="G" horiz-adv-x="1639" d="M1177 1095Q1118 1156 1033 1189T851 1223Q755 1223 677 1190T543 1096T456 949T425 758Q425 651 457 563T547 411T687 312T867 277Q945 277 1009 299T1123 364T1206 468T1255 606H857V874H1564L1574 740Q1574 569 1522
428T1375 184T1147 26T854 -30Q687 -30 544 29T293 195T125 443T65 753Q65 917 124 1058T288 1306T535 1471T842 1530Q997 1530 1143 1476T1405 1322L1177 1095Z" />
<glyph unicode="H" horiz-adv-x="1512" d="M463 0H111V1500H463V892H1049V1500H1401V0H1049V584H463V0Z" />
<glyph unicode="I" horiz-adv-x="574" d="M463 1500H111V0H463V1500Z" />
<glyph unicode="J" horiz-adv-x="564" d="M-221 -360L-239 -53Q-66 -53 17 28T101 274V1500H453V276Q453 48 385 -92T169 -296T-221 -360Z" />
<glyph unicode="K" horiz-adv-x="1510" d="M463 0H111V1500H463V818Q512 889 556 950T632 1050L989 1500H1404L852 807L1507 0H1052L627 524L463 317V0Z" />
<glyph unicode="L" horiz-adv-x="1142" d="M1111 0H111V1500H463V307H1111V0Z" />
<glyph unicode="M" horiz-adv-x="1856" d="M1745 0H1393V996L1060 252H795L463 993V0H111V1500H556L928 646L1299 1500H1745V0Z" />
<glyph unicode="N" horiz-adv-x="1605" d="M1494 0H1084L463 957V0H111V1500H521L1142 541V1500H1494V0Z" />
<glyph unicode="O" horiz-adv-x="1714" d="M858 -30Q686 -30 542 28T290 192T124 440T65 750Q65 918 124 1060T290 1307T541 1471T859 1530Q1030 1530 1174 1472T1425 1308T1590 1060T1649 750Q1649 582 1590 440T1425 193T1175 29T858 -30ZM858 277Q950 277 1028
313T1165 413T1256 564T1289 750Q1289 850 1257 936T1166 1086T1029 1187T858 1223Q766 1223 687 1187T549 1087T458 936T425 750Q425 650 457 564T548 414T686 313T858 277Z" />
<glyph unicode="P" horiz-adv-x="1359" d="M111 0V1500H641Q832 1500 971 1437T1186 1258T1262 982Q1262 822 1187 705T973 525T645 461H463V0H111ZM463 768H607Q750 768 826 823T902 982Q902 1083 826 1138T607 1193H463V768Z" />
<glyph unicode="Q" horiz-adv-x="1720" d="M1575 -257Q1433 -227 1324 -196T1116 -125T905 -29H858Q686 -29 542 29T290 193T124 440T65 750Q65 918 124 1060T290 1307T541 1471T859 1530Q1030 1530 1174 1472T1425 1308T1590 1060T1649 750Q1649 599 1600 468T1463
235T1254 70Q1320 56 1383 46T1511 30T1651 20L1575 -257ZM858 277Q950 277 1028 313T1165 413T1256 564T1289 750Q1289 850 1257 936T1166 1086T1029 1187T858 1223Q766 1223 687 1187T549 1087T458 936T425 750Q425 650 457 564T548 414T686 313T858 277Z" />
<glyph unicode="R" horiz-adv-x="1397" d="M1366 0H977L676 519H463V0H111V1500H698Q886 1500 1019 1442T1222 1274T1293 1009Q1293 858 1225 750T1029 584L1366 0ZM463 794H671Q799 794 866 845T933 993Q933 1091 866 1142T671 1193H463V794Z" />
<glyph unicode="S" horiz-adv-x="1241" d="M41 167L207 435Q278 379 342 344T468 291T594 274Q664 274 714 292T792 345T820 426Q820 481 783 519T686 587T554 646Q482 676 408 711T271 796T171 919T132 1094Q132 1230 200 1327T388 1477T659 1530Q769 1530 888
1501T1129 1411L992 1128Q920 1172 837 1197T681 1223Q624 1223 582 1207T516 1160T492 1090Q492 1039 528 1002T624 934T752 873Q825 842 900 804T1039 715T1141 591T1180 418Q1180 285 1109 184T909 26T610 -30Q453 -30 309 20T41 167Z" />
<glyph unicode="T" horiz-adv-x="1240" d="M796 0H444V1193H15V1500H1225V1193H796V0Z" />
<glyph unicode="U" horiz-adv-x="1549" d="M1438 1500V676Q1438 456 1359 298T1131 55T774 -30Q568 -30 419 55T191 298T111 676V1500H463V722Q463 572 497 474T601 326T774 277Q879 277 948 326T1051 473T1086 722V1500H1438Z" />
<glyph unicode="V" horiz-adv-x="1595" d="M983 0H613L21 1500H390L798 406L1205 1500H1574L983 0Z" />
<glyph unicode="W" horiz-adv-x="2228" d="M1723 0H1396L1115 923L834 0H507L19 1500H389L670 570L951 1500H1279L1559 573L1839 1500H2209L1723 0Z" />
<glyph unicode="X" horiz-adv-x="1609" d="M1590 0H1147L792 507L436 0H19L590 767L64 1500H507L816 1058L1115 1500H1548L1019 778L1590 0Z" />
<glyph unicode="Y" horiz-adv-x="1504" d="M928 0H576V641L13 1500H441L750 953L1063 1500H1491L928 640V0Z" />
<glyph unicode="Z" horiz-adv-x="1284" d="M1219 0H65V259L744 1193H105V1500H1208V1231L536 307H1219V0Z" />
<glyph unicode="[" horiz-adv-x="678" d="M647 -289H111V1540H647V1282H396V-27H647V-289Z" />
<glyph unicode="\" horiz-adv-x="969" d="M958 -20H650L11 1520H319L958 -20Z" />
<glyph unicode="]" horiz-adv-x="678" d="M567 -289H31V-31H282V1282H31V1540H567V-289Z" />
<glyph unicode="^" horiz-adv-x="1082" d="M1051 700H802L542 1244L280 700H31L453 1500H630L1051 700Z" />
<glyph unicode="_" horiz-adv-x="1315" d="M1204 0H111V259H1204V0Z" />
<glyph unicode="`" horiz-adv-x="524" d="M473 1161H241L41 1500H336L473 1161Z" />
<glyph unicode="a" horiz-adv-x="1123" d="M1032 0H745L728 114Q673 50 594 15T420 -20Q316 -20 235 20T108 130T61 291Q61 386 111 458T251 571T454 612Q519 612 582 598T704 559V580Q704 633 672 672T585 733T460 756Q391 756 326 735T207 673L121 918Q227 969
332 994T536 1020Q687 1020 798 961T971 795T1032 540V0ZM494 225Q545 225 592 247T670 307T702 386V390Q662 416 613 429T515 443Q442 443 398 414T354 335Q354 304 372 279T422 239T494 225Z" />
<glyph unicode="b" horiz-adv-x="1269" d="M399 0H111V1500H439V893Q500 953 579 986T752 1020Q886 1020 990 953T1154 768T1214 500Q1214 350 1154 233T990 48T752 -20Q650 -20 564 20T415 132L399 0ZM658 274Q722 274 771 303T849 383T878 501Q878 566 850 617T772
697T658 727Q599 727 551 700T473 627T439 522V481Q444 420 473 374T550 301T658 274Z" />
<glyph unicode="c" horiz-adv-x="1063" d="M1016 164Q943 78 835 29T596 -20Q440 -20 318 47T125 232T55 500Q55 650 125 767T317 952T596 1020Q726 1020 833 972T1014 839L822 636Q787 678 733 702T619 726Q553 726 502 698T421 618T391 502Q391 435 420 384T501
303T619 274Q678 274 733 298T822 364L1016 164Z" />
<glyph unicode="d" horiz-adv-x="1270" d="M1159 0H871L854 133Q793 62 706 21T518 -20Q384 -20 280 47T115 232T55 500Q55 650 115 767T279 952T518 1020Q611 1020 691 987T831 893V1500H1159V0ZM612 274Q672 274 722 300T801 374T831 483V520Q831 580 802 626T722
700T612 727Q548 727 498 698T420 617T391 500Q391 435 419 384T498 303T612 274Z" />
<glyph unicode="e" horiz-adv-x="1166" d="M1047 109Q860 -20 640 -20Q474 -20 342 50T132 242T55 516Q55 661 124 774T312 954T583 1020Q740 1020 859 947T1044 745T1111 444V412H407Q425 363 461 325T553 265T679 242Q826 242 955 337L1047 109ZM393 560H809Q803
616 775 659T702 726T600 750Q543 750 500 725T429 657T393 560Z" />
<glyph unicode="f" horiz-adv-x="953" d="M522 0H194V707H19V1000H194V1136Q194 1250 249 1339T399 1479T617 1530Q694 1530 775 1508T934 1437L810 1183Q778 1210 743 1223T672 1237Q610 1237 566 1194T522 1072V1000H817V707H522V0Z" />
<glyph unicode="g" horiz-adv-x="1255" d="M515 -16Q382 -16 278 51T115 236T55 502Q55 652 114 768T278 952T515 1020Q618 1020 704 980T852 866L867 1000H1154V28Q1154 -136 1080 -260T870 -452T554 -520Q306 -520 98 -368L228 -99Q360 -226 530 -226Q618 -226
684 -193T788 -98T826 42V111Q766 51 687 18T515 -16ZM609 277Q670 277 719 303T797 376T826 482V524Q826 583 797 629T718 701T609 727Q547 727 497 698T419 618T390 502Q390 437 418 386T497 306T609 277Z" />
<glyph unicode="h" horiz-adv-x="1220" d="M111 0V1500H439V893Q546 1020 735 1020Q921 1020 1025 904T1129 581V0H801V492Q801 604 755 665T623 727Q536 727 488 665T439 492V0H111Z" />
<glyph unicode="i" horiz-adv-x="552" d="M275 1214Q213 1214 171 1257T128 1363Q128 1424 170 1467T275 1511Q338 1511 381 1468T424 1363Q424 1301 381 1258T275 1214ZM440 0H112V1000H440V0Z" />
<glyph unicode="j" horiz-adv-x="542" d="M274 1214Q212 1214 170 1257T127 1362Q127 1424 169 1467T274 1511Q337 1511 380 1468T423 1362Q423 1300 380 1257T274 1214ZM-158 -501V-242Q-142 -245 -128 -246T-101 -247Q0 -247 55 -185T111 -10V1000H439V-24Q439
-270 333 -395T19 -520Q-21 -520 -65 -515T-158 -501Z" />
<glyph unicode="k" horiz-adv-x="1255" d="M439 0H111V1500H439V622L543 749L782 1000H1193L765 551L1238 0H815L540 352L439 269V0Z" />
<glyph unicode="l" horiz-adv-x="574" d="M463 0H111V1540H463V0Z" />
<glyph unicode="m" horiz-adv-x="1844" d="M1753 0H1425V492Q1425 604 1383 665T1263 727Q1184 727 1140 665T1096 492V0H768V492Q768 604 726 665T606 727Q527 727 483 665T439 492V0H111V1000H371L382 839Q433 928 516 974T711 1020Q824 1020 907 974T1038 840Q1089
928 1172 974T1367 1020Q1549 1020 1651 904T1753 581V0Z" />
<glyph unicode="n" horiz-adv-x="1220" d="M1129 0H801V497Q801 606 754 666T624 726Q538 726 489 664T439 493V0H111V1000H373L384 840Q437 928 523 974T727 1020Q915 1020 1022 904T1129 581V0Z" />
<glyph unicode="o" horiz-adv-x="1189" d="M597 -20Q440 -20 318 47T125 232T55 500Q55 650 125 767T317 952T597 1020Q752 1020 873 953T1064 768T1134 500Q1134 350 1065 233T874 48T597 -20ZM595 274Q653 274 699 303T771 384T798 502Q798 566 772 617T699
697T595 726Q536 726 490 697T418 617T391 502Q391 436 417 384T490 303T595 274Z" />
<glyph unicode="p" horiz-adv-x="1270" d="M440 -500H111V1000H399L415 867Q477 939 564 979T753 1020Q887 1020 991 953T1155 768T1215 500Q1215 350 1155 233T991 48T753 -20Q660 -20 581 13T440 107V-500ZM660 274Q724 274 773 303T850 383T878 500Q878 566
850 617T773 697T660 727Q600 727 552 701T474 628T440 520V477Q445 418 474 372T551 300T660 274Z" />
<glyph unicode="q" horiz-adv-x="1270" d="M1159 -500H831V107Q770 47 690 14T517 -20Q384 -20 280 47T115 232T55 500Q55 650 115 767T279 952T517 1020Q619 1020 705 980T854 867L871 1000H1159V-500ZM611 274Q672 274 720 300T797 372T831 477V520Q826 581
797 627T720 700T612 726Q548 726 498 697T420 617T391 500Q391 434 419 383T498 303T611 274Z" />
<glyph unicode="r" horiz-adv-x="874" d="M439 0H111V1000H396L407 835Q457 923 540 971T730 1020Q763 1020 797 1015T867 1000L827 705Q757 727 696 727Q618 727 560 693T471 598T439 454V0Z" />
<glyph unicode="s" horiz-adv-x="902" d="M41 85L110 359Q139 327 191 298T303 252T417 234Q468 234 496 252T524 300Q524 328 502 347T444 383T362 415Q298 439 228 472T111 563T63 717Q63 810 111 878T249 983T458 1020Q655 1020 853 921L761 667Q729 693 679
716T577 754T484 769Q443 769 421 753T399 710Q399 686 418 668T473 633T556 599Q624 575 694 541T812 449T861 294Q861 199 809 129T663 19T440 -20Q226 -20 41 85Z" />
<glyph unicode="t" horiz-adv-x="886" d="M849 27Q729 -20 616 -20Q497 -20 406 30T263 170T212 379V707H37V1000H230V1250H540V1000H810V707H540V438Q540 359 584 316T690 273Q750 273 807 311L849 27Z" />
<glyph unicode="u" horiz-adv-x="1220" d="M1109 0H847L836 160Q784 72 697 26T494 -20Q305 -20 198 97T91 420V1000H419V503Q419 394 466 334T596 274Q683 274 732 336T781 507V1000H1109V0Z" />
<glyph unicode="v" horiz-adv-x="1188" d="M1157 1000L752 0H435L31 1000H382L594 329L807 1000H1157Z" />
<glyph unicode="w" horiz-adv-x="1710" d="M1367 0H993L855 568L717 0H343L19 1000H366L525 337L713 1000H997L1185 334L1344 1000H1691L1367 0Z" />
<glyph unicode="x" horiz-adv-x="1333" d="M467 0H11L439 510L30 1000H487L668 725L847 1000H1303L895 512L1322 0H865L666 303L467 0Z" />
<glyph unicode="y" horiz-adv-x="1331" d="M690 -500H342L549 -1L35 1000H407L704 372L964 1000H1312L690 -500Z" />
<glyph unicode="z" horiz-adv-x="1127" d="M1072 0H55V162L514 706H81V1000H1033V864L553 294H1072V0Z" />
<glyph unicode="{" horiz-adv-x="671" d="M640 -289Q420 -289 308 -206T195 41V346Q195 432 148 494T31 562V689Q100 694 147 756T195 905V1210Q195 1374 307 1457T640 1540V1281Q555 1281 518 1249T480 1140V897Q480 805 435 734T312 626Q390 590 435 518T480
354V111Q480 37 517 4T640 -30V-289Z" />
<glyph unicode="|" horiz-adv-x="507" d="M396 -250H111V1540H396V-250Z" />
<glyph unicode="}" horiz-adv-x="671" d="M31 -289V-30Q117 -30 154 3T191 111V354Q191 446 236 518T359 626Q281 663 236 734T191 897V1140Q191 1215 154 1248T31 1281V1540Q251 1540 363 1457T476 1210V905Q476 819 523 757T640 689V562Q571 557 524 495T476
346V41Q476 -122 364 -205T31 -289Z" />
<glyph unicode="~" horiz-adv-x="1264" d="M1153 553Q1082 478 1015 442T875 405Q814 405 755 427T638 476Q580 503 520 525T396 548Q255 548 111 404V638Q258 782 398 782Q459 782 517 761T640 710Q698 684 757 662T877 639Q1017 639 1153 788V553Z" />
<glyph unicode="&#xa0;" horiz-adv-x="452" />
<glyph unicode="&#xa1;" horiz-adv-x="491" d="M244 732Q182 732 140 774T98 876Q98 936 140 978T244 1020Q307 1020 350 978T393 876Q393 817 350 775T244 732ZM378 -500H111L153 584H336L378 -500Z" />
<glyph unicode="&#xa2;" horiz-adv-x="1063" d="M1016 304Q958 235 876 189T695 128L703 -60H489L497 128Q368 148 268 218T111 397T55 640Q55 774 111 882T267 1061T497 1152L489 1340H703L695 1152Q793 1137 874 1092T1014 979L822 776Q787 818 733 842T620
866Q554 866 502 838T421 758T391 641Q391 576 420 524T502 443T619 413Q679 413 733 437T822 504L1016 304Z" />
<glyph unicode="&#xa3;" horiz-adv-x="1244" d="M951 658H582Q587 635 589 614T591 567Q591 489 569 421T502 293H1109V0H84V180Q201 233 272 328T343 553Q343 579 340 605T330 658H81V842H273Q251 907 237 965T222 1087Q222 1213 281 1311T444 1464T682 1520Q832
1520 959 1448T1163 1245L949 1087Q911 1154 855 1190T735 1227Q678 1227 634 1199T565 1121T540 1005Q540 967 544 929T560 842H951V658Z" />
<glyph unicode="&#xa4;" horiz-adv-x="1238" d="M1156 371L1030 245L872 409Q818 374 754 355T618 336Q547 336 484 354T367 408L208 245L81 372L245 530Q211 584 192 647T173 783Q173 854 191 917T244 1035L81 1193L208 1319L367 1157Q420 1192 484 1211T619
1230Q691 1230 754 1211T871 1157L1030 1321L1157 1194L993 1035Q1028 981 1046 918T1065 784Q1065 712 1047 648T993 530L1156 371ZM619 551Q681 551 729 580T804 663T832 783Q832 850 805 903T729 985T619 1015Q558 1015 510 986T434 903T406 783Q406 716 433
664T509 581T619 551Z" />
<glyph unicode="&#xa5;" horiz-adv-x="1334" d="M835 0H501V260H216V396H501V512H216V647H497L23 1500H406L666 909L928 1500H1311L842 647H1118V511H835V396H1118V260H835V0Z" />
<glyph unicode="&#xa6;" horiz-adv-x="507" d="M396 820H111V1540H396V820ZM396 -250H111V470H396V-250Z" />
<glyph unicode="&#xa7;" horiz-adv-x="1068" d="M119 10L229 258Q286 220 360 195T494 170Q548 170 578 191T609 248Q609 280 584 304T518 347T426 386Q355 414 283 451T161 547T111 699Q111 781 152 850T269 969Q231 995 202 1027T155 1101T138 1197Q138 1294
194 1369T348 1487T574 1530Q771 1530 950 1430L839 1182Q783 1220 708 1245T575 1270Q521 1270 490 1249T459 1191Q459 1162 482 1140T546 1097T642 1054Q713 1026 786 989T908 893T957 741Q957 659 916 590T799 471Q836 445 866 413T913 339T931 243Q931 146
875 71T720 -47T494 -90Q298 -90 119 10ZM665 544Q686 565 698 592T711 649Q711 700 678 743T576 824T403 896Q382 875 370 849T358 792Q358 742 391 699T493 617T665 544Z" />
<glyph unicode="&#xa8;" horiz-adv-x="923" d="M693 1201Q635 1201 599 1236T563 1331Q563 1389 599 1425T693 1461Q751 1461 787 1425T823 1331Q823 1272 787 1237T693 1201ZM230 1201Q171 1201 136 1236T100 1331Q100 1389 135 1425T230 1461Q288 1461 324 1425T360
1331Q360 1272 324 1237T230 1201Z" />
<glyph unicode="&#xa9;" horiz-adv-x="1261" d="M631 -104Q458 -104 322 -27T109 186T31 495Q31 668 108 803T322 1015T631 1093Q804 1093 939 1016T1152 803T1230 495Q1230 322 1153 187T940 -26T631 -104ZM631 55Q757 55 856 112T1011 268T1068 494Q1068 620
1011 720T855 877T631 934Q506 934 407 877T250 721T193 494Q193 367 250 268T406 112T631 55ZM897 261Q797 167 648 167Q549 167 472 209T351 326T307 495Q307 590 351 664T472 780T648 823Q797 823 897 729L792 619Q768 647 734 661T658 676Q581 676 531 625T481
495Q481 416 531 365T658 313Q699 313 734 328T792 371L897 261Z" />
<glyph unicode="&#xaa;" horiz-adv-x="810" d="M699 810H529L521 898Q487 851 433 826T311 800Q203 800 132 859T61 1008Q61 1073 98 1124T201 1204T348 1234Q390 1234 432 1226T513 1200V1212Q513 1274 472 1309T357 1345Q310 1345 263 1329T177 1285L99 1431Q223
1520 382 1520Q529 1520 614 1447T699 1248V810ZM361 948Q402 948 436 964T492 1007T513 1065V1095Q459 1132 390 1132Q329 1132 290 1105T250 1033Q250 996 281 972T361 948Z" />
<glyph unicode="&#xab;" horiz-adv-x="1225" d="M657 111H354L31 497L354 882H657L318 496L657 111ZM1114 111H811L488 497L811 882H1114L775 496L1114 111Z" />
<glyph unicode="&#xac;" horiz-adv-x="1043" d="M932 64H647V360H111V619H932V64Z" />
<glyph unicode="&#xad;" horiz-adv-x="1113" d="M1002 356H111V614H1002V356Z" />
<glyph unicode="&#xae;" horiz-adv-x="1261" d="M631 424Q458 424 322 501T109 714T31 1023Q31 1196 108 1331T322 1543T631 1621Q804 1621 939 1544T1152 1331T1230 1023Q1230 850 1153 715T940 502T631 424ZM631 583Q757 583 856 640T1011 796T1068 1022Q1068
1149 1011 1248T855 1405T631 1463Q506 1463 407 1406T250 1249T193 1022Q193 895 250 796T406 640T631 583ZM899 701H733L614 943H548V703H398V1345H655Q760 1345 822 1290T884 1144Q884 1079 852 1032T764 963L899 701ZM548 1067H621Q674 1067 702 1087T730 1146Q730
1183 703 1202T621 1221H548V1067Z" />
<glyph unicode="&#xaf;" horiz-adv-x="910" d="M799 1238H111V1422H799V1238Z" />
<glyph unicode="&#xb0;" horiz-adv-x="667" d="M333 915Q246 915 178 954T70 1061T31 1218Q31 1305 70 1373T177 1481T333 1520Q420 1520 488 1481T596 1374T636 1218Q636 1130 597 1062T489 954T333 915ZM333 1086Q386 1086 421 1123T456 1218Q456 1275 421 1312T333
1349Q279 1349 245 1312T211 1218Q211 1161 245 1124T333 1086Z" />
<glyph unicode="&#xb1;" horiz-adv-x="1114" d="M699 317H414V616H111V874H414V1170H699V874H1003V616H699V317ZM1003 0H111V250H1003V0Z" />
<glyph unicode="&#xb2;" horiz-adv-x="718" d="M617 790H156V888Q263 986 325 1053T413 1171T440 1265Q440 1315 412 1344T337 1374Q298 1374 260 1353T196 1296L111 1403Q157 1457 227 1488T370 1520Q477 1520 545 1456T613 1290Q613 1233 588 1174T513 1055T391
937H617V790Z" />
<glyph unicode="&#xb3;" horiz-adv-x="685" d="M101 864L165 988Q240 936 306 936Q351 936 380 960T409 1021Q409 1063 372 1085T267 1108H233V1224H267Q321 1224 357 1248T394 1306Q394 1337 369 1355T306 1374Q253 1374 185 1328L112 1444Q199 1520 323 1520Q422
1520 486 1469T551 1337Q551 1282 521 1239T438 1171Q506 1150 545 1105T584 997Q584 908 510 849T322 790Q197 790 101 864Z" />
<glyph unicode="&#xb4;" horiz-adv-x="524" d="M284 1161H51L188 1500H483L284 1161Z" />
<glyph unicode="&#xb5;" horiz-adv-x="1304" d="M1269 -20Q1150 -20 1066 14T932 119Q880 53 805 17T640 -20Q506 -20 422 64V-500H112V1000H439V508Q439 401 488 338T619 274Q701 274 749 337T797 508V1000H1125V372Q1125 218 1289 218L1269 -20Z" />
<glyph unicode="&#xb6;" horiz-adv-x="1328" d="M1217 -150H993V1276H845V-150H621V642Q464 642 345 698T158 853T91 1083Q91 1210 155 1304T337 1449T615 1500H1217V-150Z" />
<glyph unicode="&#xb7;" horiz-adv-x="492" d="M246 382Q180 382 139 423T98 530Q98 596 139 637T246 678Q313 678 353 637T394 530Q394 464 354 423T246 382Z" />
<glyph unicode="&#xb8;" horiz-adv-x="532" d="M81 -394L126 -272Q163 -291 203 -291Q245 -291 271 -269T297 -211Q297 -177 270 -156T189 -134Q184 -134 178 -134T166 -135L221 7H335L287 -97Q362 -105 406 -146T450 -251Q450 -328 389 -378T232 -429Q158 -429 81 -394Z" />
<glyph unicode="&#xb9;" horiz-adv-x="492" d="M381 780H200V1332L84 1289L31 1425L236 1500H381V780Z" />
<glyph unicode="&#xba;" horiz-adv-x="789" d="M396 800Q291 800 209 847T79 975T31 1160Q31 1264 78 1345T208 1473T396 1520Q501 1520 583 1474T711 1346T758 1161Q758 1056 712 975T583 847T396 800ZM396 967Q447 967 487 991T551 1060T574 1160Q574 1216 551
1260T488 1329T396 1354Q344 1354 303 1329T239 1260T215 1160Q215 1105 238 1061T303 992T396 967Z" />
<glyph unicode="&#xbb;" horiz-adv-x="1225" d="M414 111H111L451 496L111 882H414L737 497L414 111ZM871 111H568L908 496L568 882H871L1194 497L871 111Z" />
<glyph unicode="&#xbc;" horiz-adv-x="1649" d="M420 0H218L1242 1540H1437L420 0ZM431 780H250V1332L134 1289L81 1425L286 1500H431V780ZM1481 0H1310V138H970V268L1311 720H1481V287H1568V138H1481V0ZM1119 287H1310V540L1119 287Z" />
<glyph unicode="&#xbd;" horiz-adv-x="1693" d="M420 0H218L1242 1540H1437L420 0ZM431 780H250V1332L134 1289L81 1425L286 1500H431V780ZM1612 0H1141V99Q1253 201 1316 268T1406 384T1432 478Q1432 530 1405 560T1334 590Q1263 590 1212 517L1126 628Q1170
682 1234 711T1367 740Q1466 740 1537 679T1609 510Q1609 446 1582 385T1504 265T1383 151H1612V0Z" />
<glyph unicode="&#xbe;" horiz-adv-x="1647" d="M417 0H215L1239 1540H1434L417 0ZM81 857L145 982Q219 930 281 930Q326 930 354 954T382 1015Q382 1057 346 1080T245 1104H214V1221H243Q297 1221 331 1244T366 1303Q366 1333 343 1352T283 1372Q233 1372 165
1327L92 1444Q182 1520 300 1520Q399 1520 462 1469T526 1338Q526 1282 495 1237T409 1166Q479 1145 519 1099T559 988Q559 900 485 842T300 783Q177 783 81 857ZM1478 0H1307V138H968V268L1308 720H1478V287H1566V138H1478V0ZM1117 287H1307V540L1117 287Z" />
<glyph unicode="&#xbf;" horiz-adv-x="939" d="M571 1030Q638 1030 678 990T719 882Q719 816 679 775T571 734Q505 734 464 775T423 882Q423 949 464 989T571 1030ZM784 -115L908 -381Q719 -520 490 -520Q359 -520 263 -476T114 -350T61 -155Q61 -75 85 -18T148
84T231 172Q280 220 326 274T402 405T432 594H711Q711 452 681 359T606 204T519 96Q478 51 449 10T420 -87Q420 -153 462 -192T575 -232Q636 -232 691 -201T784 -115Z" />
<glyph unicode="&#xc0;" horiz-adv-x="1587" d="M908 1661H675L476 2000H771L908 1661ZM386 0H17L609 1500H979L1570 0H1201L1091 295H496L386 0ZM609 602H979L794 1094L609 602Z" />
<glyph unicode="&#xc1;" horiz-adv-x="1587" d="M920 1661H688L824 2000H1120L920 1661ZM386 0H17L609 1500H979L1570 0H1201L1091 295H496L386 0ZM609 602H979L794 1094L609 602Z" />
<glyph unicode="&#xc2;" horiz-adv-x="1587" d="M1148 1661H907L793 1867L679 1661H439L661 2000H926L1148 1661ZM386 0H17L609 1500H979L1570 0H1201L1091 295H496L386 0ZM609 602H979L794 1094L609 602Z" />
<glyph unicode="&#xc3;" horiz-adv-x="1587" d="M1183 1974Q1181 1839 1125 1769T959 1699Q893 1699 849 1721T769 1770Q739 1792 708 1808T637 1824Q531 1824 522 1707H405Q409 1983 632 1983Q703 1983 749 1961T833 1912Q865 1890 895 1875T962 1859Q1057 1859
1066 1974H1183ZM386 0H17L609 1500H979L1570 0H1201L1091 295H496L386 0ZM609 602H979L794 1094L609 602Z" />
<glyph unicode="&#xc4;" horiz-adv-x="1587" d="M386 0H17L609 1500H979L1570 0H1201L1091 295H496L386 0ZM609 602H979L794 1094L609 602ZM1026 1701Q968 1701 932 1736T896 1831Q896 1889 932 1925T1026 1961Q1084 1961 1120 1925T1156 1831Q1156 1772 1120
1737T1026 1701ZM563 1701Q504 1701 469 1736T433 1831Q433 1889 468 1925T563 1961Q621 1961 657 1925T693 1831Q693 1772 657 1737T563 1701Z" />
<glyph unicode="&#xc5;" horiz-adv-x="1587" d="M793 1575Q692 1575 630 1635T567 1792Q567 1890 629 1950T793 2010Q896 2010 958 1950T1020 1792Q1020 1695 958 1635T793 1575ZM793 1701Q834 1701 858 1726T883 1792Q883 1833 859 1858T793 1883Q753 1883 729
1858T704 1792Q704 1752 728 1727T793 1701ZM386 0H17L609 1500H979L1570 0H1201L1091 295H496L386 0ZM610 602H979L794 1094L610 602Z" />
<glyph unicode="&#xc6;" horiz-adv-x="2249" d="M2188 0H1204L1165 290H564L414 0H15L817 1500H1984L2026 1193H1396L1435 905H2033L2075 598H1476L1516 307H2147L2188 0ZM723 597H1123L1040 1208H1035L723 597Z" />
<glyph unicode="&#xc7;" horiz-adv-x="1490" d="M1421 187Q1327 96 1202 40T928 -27L896 -97Q971 -105 1015 -146T1060 -251Q1060 -328 999 -378T842 -429Q767 -429 691 -394L736 -272Q773 -291 813 -291Q854 -291 880 -269T907 -211Q907 -177 880 -156T799 -134Q794
-134 788 -134T776 -135L817 -29Q654 -21 517 39T278 204T121 448T65 750Q65 918 124 1060T290 1307T542 1471T858 1530Q1027 1530 1170 1473T1419 1312L1173 1065Q1116 1139 1033 1181T852 1223Q761 1223 683 1187T547 1087T457 937T425 751Q425 649 457 564T547
414T683 313T852 277Q950 277 1032 319T1173 435L1421 187Z" />
<glyph unicode="&#xc8;" horiz-adv-x="1206" d="M754 1661H521L322 2000H617L754 1661ZM111 0V1500H1095V1193H463V906H1055V599H463V307H1105V0H111Z" />
<glyph unicode="&#xc9;" horiz-adv-x="1206" d="M697 1661H465L601 2000H896L697 1661ZM111 0V1500H1095V1193H463V906H1055V599H463V307H1105V0H111Z" />
<glyph unicode="&#xca;" horiz-adv-x="1206" d="M963 1661H722L608 1867L495 1661H254L477 2000H740L963 1661ZM111 0V1500H1095V1193H463V906H1055V599H463V307H1105V0H111Z" />
<glyph unicode="&#xcb;" horiz-adv-x="1206" d="M111 0V1500H1095V1193H463V906H1055V599H463V307H1105V0H111ZM835 1701Q777 1701 741 1736T705 1831Q705 1889 741 1925T835 1961Q893 1961 929 1925T965 1831Q965 1772 929 1737T835 1701ZM372 1701Q313 1701
278 1736T242 1831Q242 1889 277 1925T372 1961Q430 1961 466 1925T502 1831Q502 1772 466 1737T372 1701Z" />
<glyph unicode="&#xcc;" horiz-adv-x="574" d="M416 1661L280 2000H-15L184 1661H416ZM463 1500H111V0H463V1500Z" />
<glyph unicode="&#xcd;" horiz-adv-x="574" d="M406 1661L605 2000H311L174 1661H406ZM463 1500H111V0H463V1500Z" />
<glyph unicode="&#xce;" horiz-adv-x="575" d="M642 1661L419 2000H156L-67 1661H173L287 1867L401 1661H642ZM464 1500H112V0H464V1500Z" />
<glyph unicode="&#xcf;" horiz-adv-x="574" d="M463 1500H111V0H463V1500ZM519 1701Q461 1701 425 1736T389 1831Q389 1889 425 1925T519 1961Q577 1961 613 1925T649 1831Q649 1772 613 1737T519 1701ZM56 1701Q-3 1701 -38 1736T-74 1831Q-74 1889 -39 1925T56
1961Q114 1961 150 1925T186 1831Q186 1772 150 1737T56 1701Z" />
<glyph unicode="&#xd0;" horiz-adv-x="1624" d="M193 0V619H11V869H193V1500H705Q975 1500 1174 1408T1483 1147T1593 750Q1593 523 1484 354T1175 93T705 0H193ZM811 619H545V307H717Q882 307 997 358T1173 509T1233 750Q1233 892 1173 991T998 1141T717 1193H545V869H811V619Z"
/>
<glyph unicode="&#xd1;" horiz-adv-x="1605" d="M1206 1974Q1204 1839 1148 1769T983 1699Q916 1699 873 1721T792 1769Q762 1791 732 1807T661 1824Q554 1824 546 1707H429Q432 1983 657 1983Q728 1983 773 1960T858 1911Q889 1891 918 1875T985 1859Q1081 1859
1089 1974H1206ZM1494 0H1084L463 957V0H111V1500H521L1142 541V1500H1494V0Z" />
<glyph unicode="&#xd2;" horiz-adv-x="1714" d="M994 1661H761L562 2000H857L994 1661ZM858 -30Q686 -30 542 28T290 192T124 440T65 750Q65 918 124 1060T290 1307T541 1471T859 1530Q1030 1530 1174 1472T1425 1308T1590 1060T1649 750Q1649 582 1590 440T1425
193T1175 29T858 -30ZM858 277Q950 277 1028 313T1165 413T1256 564T1289 750Q1289 850 1257 936T1166 1086T1029 1187T858 1223Q766 1223 687 1187T549 1087T458 936T425 750Q425 650 457 564T548 414T686 313T858 277Z" />
<glyph unicode="&#xd3;" horiz-adv-x="1714" d="M954 1661H722L858 2000H1154L954 1661ZM858 -30Q687 -30 542 28T290 192T124 440T65 750Q65 918 124 1060T290 1307T542 1471T858 1530Q1030 1530 1174 1472T1425 1308T1590 1060T1649 750Q1649 582 1590 440T1425
193T1175 29T858 -30ZM858 277Q950 277 1028 313T1165 413T1256 564T1289 750Q1289 850 1257 936T1166 1086T1029 1187T858 1223Q766 1223 687 1187T549 1087T458 936T425 750Q425 650 457 564T548 414T686 313T858 277Z" />
<glyph unicode="&#xd4;" horiz-adv-x="1714" d="M1212 1661H971L857 1867L744 1661H503L726 2000H989L1212 1661ZM858 -30Q687 -30 542 28T290 192T124 440T65 750Q65 918 124 1060T290 1307T542 1471T858 1530Q1030 1530 1174 1472T1425 1308T1590 1060T1649
750Q1649 582 1590 440T1425 193T1175 29T858 -30ZM858 277Q950 277 1028 313T1165 413T1256 564T1289 750Q1289 850 1257 936T1166 1086T1029 1187T858 1223Q766 1223 687 1187T549 1087T458 936T425 750Q425 650 457 564T548 414T686 313T858 277Z" />
<glyph unicode="&#xd5;" horiz-adv-x="1714" d="M1246 1974Q1244 1839 1188 1769T1022 1699Q956 1699 913 1721T832 1770Q802 1792 771 1808T700 1824Q594 1824 586 1707H468Q472 1983 696 1983Q767 1983 813 1961T896 1912Q928 1890 958 1875T1025 1859Q1121
1859 1129 1974H1246ZM858 -30Q686 -30 542 28T290 192T124 440T65 750Q65 918 124 1060T290 1307T541 1471T859 1530Q1030 1530 1174 1472T1425 1308T1590 1060T1649 750Q1649 582 1590 440T1425 193T1175 29T858 -30ZM858 277Q950 277 1028 313T1165 413T1256
564T1289 750Q1289 850 1257 936T1166 1086T1029 1187T858 1223Q766 1223 687 1187T549 1087T458 936T425 750Q425 650 457 564T548 414T686 313T858 277Z" />
<glyph unicode="&#xd6;" horiz-adv-x="1714" d="M858 -30Q686 -30 542 28T290 192T124 440T65 750Q65 918 124 1060T290 1307T541 1471T859 1530Q1030 1530 1174 1472T1425 1308T1590 1060T1649 750Q1649 582 1590 440T1425 193T1175 29T858 -30ZM858 277Q950
277 1028 313T1165 413T1256 564T1289 750Q1289 850 1257 936T1166 1086T1029 1187T858 1223Q766 1223 687 1187T549 1087T458 936T425 750Q425 650 457 564T548 414T686 313T858 277ZM1089 1701Q1031 1701 995 1736T959 1831Q959 1889 995 1925T1089 1961Q1147
1961 1183 1925T1219 1831Q1219 1772 1183 1737T1089 1701ZM626 1701Q567 1701 532 1736T496 1831Q496 1889 531 1925T626 1961Q684 1961 720 1925T756 1831Q756 1772 720 1737T626 1701Z" />
<glyph unicode="&#xd7;" horiz-adv-x="1102" d="M820 36L551 305L282 36L99 219L368 488L99 757L282 940L550 670L820 940L1003 757L734 488L1003 219L820 36Z" />
<glyph unicode="&#xd8;" horiz-adv-x="1714" d="M595 -98L454 -35L490 51Q361 114 266 217T118 457T65 750Q65 918 124 1060T290 1307T541 1471T858 1530Q919 1530 977 1522T1091 1499L1129 1591L1270 1535L1233 1445Q1360 1382 1453 1279T1597 1041T1649 750Q1649
582 1590 440T1425 193T1175 29T858 -30Q799 -30 743 -23T634 -1L595 -98ZM616 356L970 1208Q943 1215 915 1219T858 1223Q765 1223 686 1187T549 1087T458 936T425 750Q425 666 448 592T515 457T616 356ZM858 277Q950 277 1028 313T1165 413T1256 564T1289 750Q1289
833 1267 905T1203 1037T1106 1138L755 290Q780 284 805 281T858 277Z" />
<glyph unicode="&#xd9;" horiz-adv-x="1549" d="M911 1661H679L480 2000H774L911 1661ZM1438 1500V676Q1438 456 1359 298T1131 55T775 -30Q568 -30 419 55T191 298T111 676V1500H463V722Q463 572 497 474T601 326T775 277Q879 277 948 326T1051 473T1086 722V1500H1438Z" />
<glyph unicode="&#xda;" horiz-adv-x="1549" d="M872 1661H640L776 2000H1071L872 1661ZM1438 1500V676Q1438 456 1359 298T1131 55T775 -30Q568 -30 419 55T191 298T111 676V1500H463V722Q463 572 497 474T601 326T775 277Q879 277 948 326T1051 473T1086 722V1500H1438Z"
/>
<glyph unicode="&#xdb;" horiz-adv-x="1549" d="M1129 1661H889L775 1867L661 1661H421L643 2000H907L1129 1661ZM1438 1500V676Q1438 456 1359 298T1131 55T775 -30Q568 -30 419 55T191 298T111 676V1500H463V722Q463 572 497 474T601 326T775 277Q879 277 948
326T1051 473T1086 722V1500H1438Z" />
<glyph unicode="&#xdc;" horiz-adv-x="1549" d="M1438 1500V676Q1438 456 1359 298T1131 55T774 -30Q568 -30 419 55T191 298T111 676V1500H463V722Q463 572 497 474T601 326T774 277Q879 277 948 326T1051 473T1086 722V1500H1438ZM1007 1701Q949 1701 913 1736T877
1831Q877 1889 913 1925T1007 1961Q1065 1961 1101 1925T1137 1831Q1137 1772 1101 1737T1007 1701ZM544 1701Q485 1701 450 1736T414 1831Q414 1889 449 1925T544 1961Q602 1961 638 1925T674 1831Q674 1772 638 1737T544 1701Z" />
<glyph unicode="&#xdd;" horiz-adv-x="1504" d="M849 1661H617L753 2000H1049L849 1661ZM928 0H576V641L13 1500H440L750 953L1063 1500H1491L928 640V0Z" />
<glyph unicode="&#xde;" horiz-adv-x="1236" d="M440 0H111V1500H440V1205H633Q789 1205 904 1150T1082 993T1145 753Q1145 615 1082 512T903 352T633 295H440V0ZM440 588H563Q687 588 748 628T809 750Q809 831 748 871T562 912H440V588Z" />
<glyph unicode="&#xdf;" horiz-adv-x="1268" d="M463 0H111V1077Q111 1213 175 1314T354 1473T620 1530Q771 1530 886 1480T1066 1342T1132 1137Q1132 1062 1107 1013T1046 931T976 874Q944 852 922 832T900 785Q900 756 928 736T1002 690Q1037 671 1073 647T1139
590T1188 508T1207 394Q1207 269 1136 176T935 31T629 -20L568 278Q662 278 729 302T832 370T868 474Q868 521 848 552T798 604T735 643Q691 668 656 696T621 776Q621 817 643 841T696 889Q719 906 741 926T778 977T792 1052Q792 1104 772 1142T716 1201T630 1223Q551
1223 507 1166T463 1007V0Z" />
<glyph unicode="&#xe0;" horiz-adv-x="1123" d="M707 1161H474L276 1500H570L707 1161ZM1032 0H745L728 114Q673 50 594 15T420 -20Q316 -20 235 20T108 130T61 291Q61 386 111 458T251 571T454 612Q519 612 582 598T704 559V580Q704 633 672 672T585 733T458
756Q391 756 326 735T207 673L121 918Q227 969 332 994T536 1020Q687 1020 798 961T971 795T1032 540V0ZM493 225Q545 225 593 248T672 309T702 388V390Q663 416 615 429T516 443Q442 443 398 414T354 335Q354 304 372 279T422 239T493 225Z" />
<glyph unicode="&#xe1;" horiz-adv-x="1123" d="M671 1161H440L576 1500H871L671 1161ZM1032 0H745L728 114Q673 50 594 15T420 -20Q316 -20 235 20T108 130T61 291Q61 386 111 458T251 571T454 612Q519 612 582 598T704 559V580Q704 633 672 672T585 733T458
756Q391 756 326 735T207 673L121 918Q227 969 332 994T536 1020Q687 1020 798 961T971 795T1032 540V0ZM493 225Q545 225 593 248T672 309T702 388V390Q663 416 615 429T516 443Q442 443 398 414T354 335Q354 304 372 279T422 239T493 225Z" />
<glyph unicode="&#xe2;" horiz-adv-x="1123" d="M918 1161H676L562 1367L449 1161H208L431 1500H695L918 1161ZM1032 0H745L728 114Q673 50 594 15T420 -20Q316 -20 235 20T108 130T61 291Q61 386 111 458T251 571T454 612Q519 612 582 598T704 559V580Q704 633
672 672T585 733T458 756Q391 756 326 735T207 673L121 918Q227 969 332 994T536 1020Q687 1020 798 961T971 795T1032 540V0ZM493 225Q545 225 593 248T672 309T702 388V390Q663 416 615 429T516 443Q442 443 398 414T354 335Q354 304 372 279T422 239T493 225Z"
/>
<glyph unicode="&#xe3;" horiz-adv-x="1123" d="M950 1474Q949 1339 893 1269T727 1199Q661 1199 617 1221T536 1270Q506 1292 476 1308T404 1324Q298 1324 290 1207H173Q176 1483 400 1483Q471 1483 517 1461T601 1412Q632 1390 662 1375T729 1359Q825 1359 833
1474H950ZM1032 0H745L728 114Q673 50 594 15T420 -20Q316 -20 235 20T108 130T61 291Q61 386 111 458T251 571T454 612Q519 612 582 598T704 559V580Q704 633 672 672T585 733T458 756Q391 756 326 735T207 673L121 918Q227 969 332 994T536 1020Q687 1020 798
961T971 795T1032 540V0ZM493 225Q545 225 593 248T671 309T702 388V390Q663 416 615 429T516 443Q442 443 398 414T354 335Q354 304 372 279T422 239T493 225Z" />
<glyph unicode="&#xe4;" horiz-adv-x="1123" d="M1032 0H745L728 114Q673 50 594 15T420 -20Q316 -20 235 20T108 130T61 291Q61 386 111 458T251 571T454 612Q519 612 582 598T704 559V580Q704 633 672 672T585 733T460 756Q391 756 326 735T207 673L121 918Q227
969 332 994T536 1020Q687 1020 798 961T971 795T1032 540V0ZM494 225Q545 225 592 247T670 307T702 386V390Q662 416 613 429T515 443Q442 443 398 414T354 335Q354 304 372 279T422 239T494 225ZM813 1201Q755 1201 719 1236T683 1331Q683 1389 719 1425T813
1461Q871 1461 907 1425T943 1331Q943 1272 907 1237T813 1201ZM350 1201Q291 1201 256 1236T220 1331Q220 1389 255 1425T350 1461Q408 1461 444 1425T480 1331Q480 1272 444 1237T350 1201Z" />
<glyph unicode="&#xe5;" horiz-adv-x="1123" d="M563 1085Q462 1085 400 1145T337 1303Q337 1400 399 1460T563 1520Q665 1520 727 1460T789 1303Q789 1205 727 1145T563 1085ZM563 1212Q603 1212 628 1237T653 1303Q653 1343 628 1368T563 1393Q523 1393 498
1368T473 1303Q473 1262 498 1237T563 1212ZM1032 0H745L728 114Q673 50 594 15T420 -20Q316 -20 235 20T108 130T61 291Q61 386 111 458T251 571T454 612Q519 612 582 598T704 559V580Q704 633 672 672T585 733T458 756Q391 756 326 735T207 673L121 918Q227 969
332 994T536 1020Q687 1020 798 961T971 795T1032 540V0ZM493 225Q545 225 593 248T672 309T702 388V390Q663 416 615 429T516 443Q442 443 398 414T354 335Q354 304 372 279T422 239T493 225Z" />
<glyph unicode="&#xe6;" horiz-adv-x="1798" d="M1681 108Q1509 -20 1300 -20Q1172 -20 1060 31T872 174Q832 113 771 70T633 3T468 -20Q349 -20 257 20T113 133T61 298Q61 393 115 467T263 585T477 628Q611 628 729 572L726 580Q706 654 634 698T460 742Q314
742 186 659L105 918Q201 969 296 994T481 1020Q604 1020 701 973T860 837Q929 925 1031 972T1251 1020Q1398 1020 1509 948T1681 746T1743 446V414H1042Q1062 364 1100 326T1193 268T1312 248Q1459 248 1588 343L1681 108ZM1027 548H1441Q1433 601 1404 641T1332
703T1233 726Q1179 726 1136 704T1064 642T1027 548ZM738 398Q706 427 653 443T539 459Q483 459 442 445T377 405T354 342Q354 308 374 281T432 239T519 224Q572 224 617 242T693 295T733 375L738 398Z" />
<glyph unicode="&#xe7;" horiz-adv-x="1063" d="M1016 164Q951 86 857 40T650 -17L613 -97Q688 -105 732 -146T776 -251Q776 -328 715 -378T558 -429Q484 -429 407 -394L452 -272Q489 -291 529 -291Q571 -291 597 -269T623 -211Q623 -177 596 -156T515 -134Q510
-134 504 -134T492 -135L538 -17Q397 -4 288 65T117 247T55 500Q55 650 125 767T317 952T596 1020Q726 1020 833 972T1014 839L822 636Q787 678 733 702T619 726Q553 726 502 698T421 618T391 502Q391 435 420 384T501 303T619 274Q678 274 733 298T822 364L1016
164Z" />
<glyph unicode="&#xe8;" horiz-adv-x="1165" d="M1047 109Q860 -20 640 -20Q474 -20 342 50T132 242T55 516Q55 661 124 774T312 954T583 1020Q740 1020 859 947T1044 745T1111 444V412H407Q425 363 461 325T553 265T679 242Q826 242 955 337L1047 109ZM393 560H809Q803
616 775 659T702 726T600 750Q543 750 500 725T429 657T393 560ZM730 1161H498L298 1500H593L730 1161Z" />
<glyph unicode="&#xe9;" horiz-adv-x="1165" d="M1047 109Q860 -20 640 -20Q474 -20 342 50T132 242T55 516Q55 661 124 774T312 954T583 1020Q740 1020 859 947T1044 745T1111 444V412H407Q425 363 461 325T553 265T679 242Q826 242 955 337L1047 109ZM393 560H809Q803
616 775 659T702 726T600 750Q543 750 500 725T429 657T393 560ZM701 1161H468L605 1500H900L701 1161Z" />
<glyph unicode="&#xea;" horiz-adv-x="1165" d="M1047 109Q860 -20 640 -20Q474 -20 342 50T132 242T55 516Q55 661 124 774T312 954T583 1020Q740 1020 859 947T1044 745T1111 444V412H407Q425 363 461 325T553 265T679 242Q826 242 955 337L1047 109ZM393 560H809Q803
616 775 659T702 726T600 750Q543 750 500 725T429 657T393 560ZM938 1161H697L583 1367L470 1161H229L451 1500H715L938 1161Z" />
<glyph unicode="&#xeb;" horiz-adv-x="1165" d="M1047 109Q860 -20 640 -20Q474 -20 342 50T132 242T55 516Q55 661 124 774T312 954T583 1020Q740 1020 859 947T1044 745T1111 444V412H407Q425 363 461 325T553 265T679 242Q826 242 955 337L1047 109ZM393 560H809Q803
616 775 659T702 726T600 750Q543 750 500 725T429 657T393 560ZM815 1201Q757 1201 721 1236T685 1331Q685 1389 721 1425T815 1461Q873 1461 909 1425T945 1331Q945 1272 909 1237T815 1201ZM352 1201Q293 1201 258 1236T222 1331Q222 1389 257 1425T352 1461Q410
1461 446 1425T482 1331Q482 1272 446 1237T352 1201Z" />
<glyph unicode="&#xec;" horiz-adv-x="551" d="M407 1161H175L-25 1500H271L407 1161ZM440 0H112V1000H440V0Z" />
<glyph unicode="&#xed;" horiz-adv-x="550" d="M378 1161H146L283 1500H577L378 1161ZM439 0H111V1000H439V0Z" />
<glyph unicode="&#xee;" horiz-adv-x="550" d="M630 1161H390L276 1367L161 1161H-78L144 1500H408L630 1161ZM439 0H111V1000H439V0Z" />
<glyph unicode="&#xef;" horiz-adv-x="550" d="M439 0H111V1000H439V0ZM507 1201Q449 1201 413 1236T377 1331Q377 1389 413 1425T507 1461Q565 1461 601 1425T637 1331Q637 1272 601 1237T507 1201ZM44 1201Q-15 1201 -50 1236T-86 1331Q-86 1389 -51 1425T44
1461Q102 1461 138 1425T174 1331Q174 1272 138 1237T44 1201Z" />
<glyph unicode="&#xf0;" horiz-adv-x="1176" d="M1064 1257L896 1193Q1017 1058 1081 899T1145 566Q1145 385 1079 251T891 44T603 -30Q447 -30 325 35T132 213T61 474Q61 606 118 707T276 865T510 923Q603 923 679 893T809 808Q779 883 732 955T617 1091L339
980L288 1107L507 1193Q462 1223 423 1242T327 1282L463 1500Q551 1456 632 1406T784 1298L1014 1384L1064 1257ZM604 277Q655 277 695 305T760 382T784 492Q784 553 760 601T695 676T600 704Q549 704 509 677T445 604T422 496Q422 436 446 386T511 307T604 277Z"
/>
<glyph unicode="&#xf1;" horiz-adv-x="1220" d="M1016 1474Q1014 1339 958 1269T792 1199Q726 1199 683 1221T602 1269Q572 1291 542 1307T471 1324Q364 1324 355 1207H238Q242 1483 466 1483Q537 1483 583 1460T668 1411Q699 1391 728 1375T795 1359Q890 1359
899 1474H1016ZM1129 0H801V497Q801 606 754 666T624 726Q538 726 489 664T439 493V0H111V1000H373L384 840Q437 928 523 974T727 1020Q915 1020 1022 904T1129 581V0Z" />
<glyph unicode="&#xf2;" horiz-adv-x="1189" d="M732 1161H499L300 1500H595L732 1161ZM596 -20Q440 -20 318 47T125 232T55 500Q55 650 125 767T317 952T596 1020Q752 1020 873 953T1064 768T1134 500Q1134 350 1065 233T874 48T596 -20ZM595 274Q653 274 699
303T771 384T798 502Q798 566 772 617T699 697T595 727Q536 727 490 698T418 617T391 502Q391 436 417 384T490 303T595 274Z" />
<glyph unicode="&#xf3;" horiz-adv-x="1189" d="M692 1161H460L596 1500H892L692 1161ZM596 -20Q440 -20 318 47T125 232T55 500Q55 650 125 767T317 952T596 1020Q752 1020 873 953T1064 768T1134 500Q1134 350 1065 233T874 48T596 -20ZM595 274Q653 274 699
303T771 384T798 502Q798 566 772 617T699 697T595 727Q536 727 490 698T418 617T391 502Q391 436 417 384T490 303T595 274Z" />
<glyph unicode="&#xf4;" horiz-adv-x="1189" d="M950 1161H709L595 1367L482 1161H241L464 1500H727L950 1161ZM596 -20Q440 -20 318 47T125 232T55 500Q55 650 125 767T317 952T596 1020Q752 1020 873 953T1064 768T1134 500Q1134 350 1065 233T874 48T596 -20ZM595
274Q653 274 699 303T771 384T798 502Q798 566 772 617T699 697T595 727Q536 727 490 698T418 617T391 502Q391 436 417 384T490 303T595 274Z" />
<glyph unicode="&#xf5;" horiz-adv-x="1189" d="M972 1474Q970 1339 914 1269T748 1199Q682 1199 639 1221T558 1269Q528 1291 498 1307T427 1324Q320 1324 311 1207H194Q198 1483 422 1483Q493 1483 539 1460T624 1411Q655 1391 684 1375T751 1359Q846 1359 855
1474H972ZM596 -20Q440 -20 318 47T125 232T55 500Q55 650 125 767T317 952T596 1020Q752 1020 873 953T1064 768T1134 500Q1134 350 1065 233T874 48T596 -20ZM595 274Q653 274 699 303T771 384T798 502Q798 566 772 617T699 697T595 727Q536 727 490 698T418
617T391 502Q391 436 417 384T490 303T595 274Z" />
<glyph unicode="&#xf6;" horiz-adv-x="1189" d="M597 -20Q440 -20 318 47T125 232T55 500Q55 650 125 767T317 952T597 1020Q752 1020 873 953T1064 768T1134 500Q1134 350 1065 233T874 48T597 -20ZM595 274Q653 274 699 303T771 384T798 502Q798 566 772 617T699
697T595 726Q536 726 490 697T418 617T391 502Q391 436 417 384T490 303T595 274ZM819 1201Q761 1201 725 1236T689 1331Q689 1389 725 1425T819 1461Q877 1461 913 1425T949 1331Q949 1272 913 1237T819 1201ZM356 1201Q297 1201 262 1236T226 1331Q226 1389 261
1425T356 1461Q414 1461 450 1425T486 1331Q486 1272 450 1237T356 1201Z" />
<glyph unicode="&#xf7;" horiz-adv-x="1022" d="M511 682Q449 682 407 725T364 831Q364 893 406 936T511 980Q574 980 617 937T660 831Q660 769 617 726T511 682ZM911 395H111V565H911V395ZM511 -20Q449 -20 407 23T364 129Q364 191 406 234T511 278Q574 278 617
235T660 129Q660 67 617 24T511 -20Z" />
<glyph unicode="&#xf8;" horiz-adv-x="1189" d="M414 -73L318 -34L346 34Q213 96 134 218T55 500Q55 650 125 767T317 952T596 1020Q635 1020 672 1016T746 1001L774 1070L871 1030L845 967Q977 905 1055 782T1134 500Q1134 350 1065 233T874 48T596 -20Q556 -20
518 -16T444 -2L414 -73ZM466 324L631 723Q616 727 595 727Q536 727 490 698T418 617T391 502Q391 446 411 400T466 324ZM595 274Q653 274 699 303T772 384T799 502Q799 556 779 601T724 677L559 277Q574 274 595 274Z" />
<glyph unicode="&#xf9;" horiz-adv-x="1220" d="M734 1161H501L302 1500H598L734 1161ZM1109 0H847L836 160Q784 72 697 26T494 -20Q305 -20 198 97T91 420V1000H419V503Q419 394 466 334T596 274Q683 274 732 336T781 507V1000H1109V0Z" />
<glyph unicode="&#xfa;" horiz-adv-x="1220" d="M656 1161H423L560 1500H855L656 1161ZM1109 0H847L836 160Q784 72 697 26T494 -20Q305 -20 198 97T91 420V1000H419V503Q419 394 466 334T596 274Q683 274 732 336T781 507V1000H1109V0Z" />
<glyph unicode="&#xfb;" horiz-adv-x="1220" d="M882 1161H641L527 1367L414 1161H173L396 1500H659L882 1161ZM1109 0H847L836 160Q784 72 697 26T494 -20Q305 -20 198 97T91 420V1000H419V503Q419 394 466 334T596 274Q683 274 732 336T781 507V1000H1109V0Z" />
<glyph unicode="&#xfc;" horiz-adv-x="1220" d="M1109 0H847L836 160Q784 72 697 26T494 -20Q305 -20 198 97T91 420V1000H419V503Q419 394 466 334T596 274Q683 274 732 336T781 507V1000H1109V0ZM842 1201Q784 1201 748 1236T712 1331Q712 1389 748 1425T842
1461Q900 1461 936 1425T972 1331Q972 1272 936 1237T842 1201ZM379 1201Q320 1201 285 1236T249 1331Q249 1389 284 1425T379 1461Q437 1461 473 1425T509 1331Q509 1272 473 1237T379 1201Z" />
<glyph unicode="&#xfd;" horiz-adv-x="1329" d="M789 1161H556L693 1500H988L789 1161ZM688 -500H342L548 -1L19 1000H406L703 372L963 1000H1310L688 -500Z" />
<glyph unicode="&#xfe;" horiz-adv-x="1246" d="M440 -500H111V1500H440V879Q500 946 581 983T758 1020Q891 1020 994 953T1156 768T1215 500Q1215 350 1156 233T994 48T759 -20Q662 -20 581 17T440 121V-500ZM659 274Q723 274 772 303T850 383T879 500Q879 565
851 616T773 697T659 727Q600 727 552 700T474 627T440 519V478Q444 419 473 373T551 301T659 274Z" />
<glyph unicode="&#xff;" horiz-adv-x="1331" d="M690 -500H342L549 -1L35 1000H407L704 372L964 1000H1312L690 -500ZM925 1201Q867 1201 831 1236T795 1331Q795 1389 831 1425T925 1461Q983 1461 1019 1425T1055 1331Q1055 1272 1019 1237T925 1201ZM462 1201Q403
1201 368 1236T332 1331Q332 1389 367 1425T462 1461Q520 1461 556 1425T592 1331Q592 1272 556 1237T462 1201Z" />
<glyph unicode="&#x2013;" horiz-adv-x="1242" d="M1131 384H111V634H1131V384Z" />
<glyph unicode="&#x2014;" horiz-adv-x="2262" d="M2151 384H111V634H2151V384Z" />
<glyph unicode="&#x2018;" horiz-adv-x="547" d="M337 1070H111L251 1520H438L337 1070Z" />
<glyph unicode="&#x2019;" horiz-adv-x="547" d="M295 1070H111L212 1520H436L295 1070Z" />
<glyph unicode="&#x201a;" horiz-adv-x="486" d="M287 -240H71L143 196H405L287 -240Z" />
<glyph unicode="&#x201c;" horiz-adv-x="951" d="M335 1070H111L252 1520H436L335 1070ZM739 1070H515L655 1520H840L739 1070Z" />
<glyph unicode="&#x201d;" horiz-adv-x="951" d="M700 1070H515L616 1520H840L700 1070ZM296 1070H111L212 1520H436L296 1070Z" />
<glyph unicode="&#x201e;" horiz-adv-x="895" d="M695 -240H479L551 196H813L695 -240ZM287 -240H71L143 196H405L287 -240Z" />
<glyph unicode="&#x2022;" horiz-adv-x="597" d="M299 503Q214 503 158 558T101 700Q101 785 157 841T299 898Q385 898 440 842T496 700Q496 614 441 559T299 503Z" />
<glyph unicode="&#x2039;" horiz-adv-x="799" d="M688 115H379L31 521L379 927H688L329 521L688 115Z" />
<glyph unicode="&#x203a;" horiz-adv-x="799" d="M419 115H111L469 521L111 927H419L768 521L419 115Z" />
</font>
</defs>
</svg>
